<svg xmlns="http://www.w3.org/2000/svg" width="144" height="144" viewBox="0 0 144 144"><defs><style>.a{fill:#f0e28d;}</style></defs><path class="a" d="M43.975,138.342A72.232,72.232,0,1,1,72,144,71.75,71.75,0,0,1,43.975,138.342ZM2,72A70,70,0,1,0,72,2,70.079,70.079,0,0,0,2,72Zm43.142,63.576A69.227,69.227,0,1,1,72,141,68.758,68.758,0,0,1,45.141,135.577ZM4.916,72A67.084,67.084,0,1,0,72,4.917,67.16,67.16,0,0,0,4.916,72ZM117.228,88.754a4.844,4.844,0,1,1,.01,0ZM114,83.908a3.228,3.228,0,1,0,3.227-3.228A3.231,3.231,0,0,0,114,83.908ZM86.444,88.754a4.846,4.846,0,1,1,.009,0Zm-3.228-4.846a3.228,3.228,0,1,0,3.228-3.228A3.232,3.232,0,0,0,83.216,83.908ZM38.188,88.754a4.846,4.846,0,1,1,.009,0ZM34.96,83.908a3.228,3.228,0,1,0,3.228-3.228A3.232,3.232,0,0,0,34.96,83.908Zm17.883,4.44-3.284-3.284h-.225v2.658a.826.826,0,1,1-1.651,0V80.058a.827.827,0,0,1,.825-.826H51.1a3.247,3.247,0,0,1,2.55.918,2.462,2.462,0,0,1,.507.931,3.6,3.6,0,0,1,.139,1.026,3.68,3.68,0,0,1-.139,1.036,2.564,2.564,0,0,1-.5.959,2.814,2.814,0,0,1-1.811.913l2.167,2.167a.826.826,0,1,1-1.168,1.167Zm-3.509-4.936h2.019a1.248,1.248,0,0,0,1.293-1.286,1.189,1.189,0,0,0-1.293-1.243H49.333Zm56.732,4.342V80.06a.828.828,0,1,1,1.657,0v7.694a.828.828,0,0,1-1.657,0Zm-9.3.828a.829.829,0,0,1-.829-.828V80.06a.828.828,0,1,1,1.657,0v6.865h3.369a.828.828,0,0,1,0,1.657Zm-25.7-.828V80.06a.83.83,0,0,1,.829-.829h5.6a.828.828,0,1,1,0,1.657H72.725v2.191h2.669a.828.828,0,1,1,0,1.657H72.725v3.019a.828.828,0,0,1-1.657,0Zm-9.425,0V80.888H58.975a.828.828,0,1,1,0-1.657H65.97a.828.828,0,0,1,0,1.657H63.3v6.866a.828.828,0,0,1-1.657,0Zm-39.052,0V80.06a.829.829,0,0,1,.828-.829h2.606a3.261,3.261,0,0,1,2.559.922,2.487,2.487,0,0,1,.508.934,3.588,3.588,0,0,1,.139,1.03,3.7,3.7,0,0,1-.139,1.039,2.583,2.583,0,0,1-.506.962,3.192,3.192,0,0,1-2.561.967H24.249v2.669a.828.828,0,0,1-1.657,0Zm1.657-4.326h2.028a1.254,1.254,0,0,0,1.3-1.291,1.206,1.206,0,0,0-1.3-1.248H24.249ZM57.073,69.559a3.983,3.983,0,0,1-.9-2.972,1.318,1.318,0,0,1,1.319-1.3h0A1.321,1.321,0,0,1,58.81,66.6v.35c.077.628.59,1.665,3.127,1.665a3.607,3.607,0,0,0,2.812-.878,1.411,1.411,0,0,0,.319-1.1l0-.041c0-.712-1.36-1.174-2.934-1.708-2.651-.9-5.95-2.02-5.959-5.226a4.038,4.038,0,0,1,.94-2.983c.973-1.119,2.6-1.686,4.827-1.686,4.468,0,5.508,2.28,5.729,3.646a1.273,1.273,0,0,1,.038.3,3.6,3.6,0,0,1,0,.724,1.32,1.32,0,0,1-2.641-.011v-.017c0-.2-.117-2-3.127-2a3.613,3.613,0,0,0-2.833.883,1.376,1.376,0,0,0-.3,1.087l0,.044c0,.718,1.373,1.193,2.962,1.743,2.639.913,5.921,2.049,5.932,5.19a3.986,3.986,0,0,1-.9,2.971c-.968,1.128-2.6,1.7-4.864,1.7S58.04,70.687,57.073,69.559ZM40.7,69.419a4.154,4.154,0,0,1-.986-3.037V56.935a1.338,1.338,0,0,1,2.676,0v9.85c.08.677.6,1.8,3.18,1.8,2.606,0,3.12-1.141,3.191-1.833,0-.025,0-.05,0-.076V56.935a1.338,1.338,0,0,1,2.676,0v9.446a4.163,4.163,0,0,1-.993,3.037c-.994,1.129-2.634,1.7-4.873,1.7S41.7,70.547,40.7,69.419Zm-13.863.94h0a7.925,7.925,0,1,1,8.017-13.5,1.055,1.055,0,0,1,.126.1,1.237,1.237,0,0,1,.085,1.638,1.308,1.308,0,0,1-1.781.371l-.008.008-.169-.127-.148-.1a1.287,1.287,0,0,1-.119-.09,5.209,5.209,0,0,0-2.9-.878h-.016a5.279,5.279,0,1,0,0,10.558,5.192,5.192,0,0,0,2.937-.892l.419-.328a1.326,1.326,0,0,1,1.856.228,1.3,1.3,0,0,1-.168,1.826l-.04.031a7.93,7.93,0,0,1-8.09,1.155ZM95.2,70.98a7.817,7.817,0,1,1,.015,0Zm-5.214-7.83A5.214,5.214,0,1,0,95.2,57.936,5.22,5.22,0,0,0,89.987,63.15ZM120.149,70.7h0Zm-1.336-1.259,0,0V61.4l-3.137,4.83a1.315,1.315,0,0,1-.22.26,1.338,1.338,0,0,1-1.884.092,1.362,1.362,0,0,1-.227-.266l-3.155-4.858v7.9a1.338,1.338,0,1,1-2.677,0V56.936a1.339,1.339,0,0,1,2.511-.646l4.459,6.865,4.5-6.934a1.36,1.36,0,0,1,2.5.711V69.365a1.339,1.339,0,0,1-2.675.079Zm-41.961-.08V58.274H72.542a1.338,1.338,0,1,1,0-2.677h11.3a1.338,1.338,0,1,1,0,2.677H79.529v11.09a1.338,1.338,0,0,1-2.677,0Z"/></svg>