<svg xmlns="http://www.w3.org/2000/svg" width="610" height="610" viewBox="0 0 610 610"><defs><style>.a{fill:#f0e28d;}</style></defs><path class="a" d="M186.281,586.031A305.983,305.983,0,1,1,305,610,303.952,303.952,0,0,1,186.281,586.031ZM8.471,305c0,163.5,133.023,296.526,296.532,296.526S601.529,468.506,601.529,305,468.506,8.471,305,8.471,8.471,141.493,8.471,305ZM191.222,574.321A293.262,293.262,0,1,1,305,597.29,291.374,291.374,0,0,1,191.222,574.321ZM20.823,305c0,156.69,127.484,284.173,284.174,284.173S589.171,461.693,589.171,305,461.693,20.829,305,20.829,20.823,148.307,20.823,305Zm467.9,68.35a20.106,20.106,0,1,1,.04,0Zm-13.407-20.134A13.409,13.409,0,1,0,488.72,339.81,13.423,13.423,0,0,0,475.313,353.219ZM360.848,373.353a20.1,20.1,0,1,1,.04,0Zm-13.407-20.134a13.409,13.409,0,1,0,13.407-13.409A13.423,13.423,0,0,0,347.441,353.219ZM160.4,373.353a20.1,20.1,0,1,1,.04,0Zm-13.407-20.134A13.409,13.409,0,1,0,160.4,339.81,13.423,13.423,0,0,0,146.993,353.219Zm74.283,18.445-13.642-13.642H206.7v11.04a3.43,3.43,0,0,1-6.861,0V337.226a3.434,3.434,0,0,1,3.431-3.43h10.778c4.791,0,8.355,1.283,10.591,3.812a10.257,10.257,0,0,1,2.1,3.866,14.825,14.825,0,0,1,.578,4.261,15.368,15.368,0,0,1-.576,4.3,10.679,10.679,0,0,1-2.094,3.98,11.672,11.672,0,0,1-7.52,3.792l9,9a3.43,3.43,0,0,1-4.851,4.852Zm-14.579-20.5h8.388a5.186,5.186,0,0,0,5.372-5.341c0-2.382-1.407-5.163-5.372-5.163H206.7ZM442.35,369.2V337.238a3.442,3.442,0,0,1,6.883,0V369.2a3.442,3.442,0,0,1-6.883,0Zm-38.624,3.442a3.445,3.445,0,0,1-3.442-3.442V337.238a3.442,3.442,0,0,1,6.883,0v28.517h13.991a3.442,3.442,0,1,1,0,6.883ZM296.982,369.2V337.238a3.446,3.446,0,0,1,3.442-3.442h23.243a3.442,3.442,0,0,1,0,6.883h-19.8v9.1h11.085a3.441,3.441,0,0,1,0,6.882H303.865V369.2a3.442,3.442,0,0,1-6.883,0Zm-39.149,0V340.68H246.748a3.442,3.442,0,1,1,0-6.883H275.8a3.442,3.442,0,1,1,0,6.883H264.716V369.2a3.442,3.442,0,0,1-6.883,0Zm-162.217,0V337.238a3.446,3.446,0,0,1,3.442-3.442h10.82c4.809,0,8.385,1.288,10.631,3.827a10.28,10.28,0,0,1,2.111,3.881,14.884,14.884,0,0,1,.58,4.277,15.4,15.4,0,0,1-.579,4.318,10.712,10.712,0,0,1-2.1,4c-2.264,2.667-5.844,4.018-10.642,4.018H102.5V369.2a3.442,3.442,0,0,1-6.883,0Zm6.883-17.969h8.422a5.208,5.208,0,0,0,5.4-5.364,5.012,5.012,0,0,0-5.4-5.186H102.5Zm158-49.419c-9.469,0-16.326-2.4-20.382-7.12a16.7,16.7,0,0,1-3.784-12.452,5.532,5.532,0,0,1,5.531-5.467h0A5.539,5.539,0,0,1,247.4,282.3v1.467c.323,2.629,2.468,6.977,13.1,6.977,5.718,0,9.791-1.273,11.782-3.683a5.908,5.908,0,0,0,1.337-4.592l-.016-.169c0-2.984-5.7-4.918-12.3-7.159-11.11-3.771-24.933-8.463-24.971-21.9a16.932,16.932,0,0,1,3.938-12.5c4.079-4.688,10.884-7.066,20.228-7.066,18.723,0,23.081,9.554,24.008,15.278a5.526,5.526,0,0,1,.158,1.244,14.859,14.859,0,0,1,0,3.034,5.532,5.532,0,0,1-11.064-.048v-.071c-.013-.845-.491-8.373-13.1-8.373-5.8,0-9.909,1.28-11.873,3.7A5.775,5.775,0,0,0,247.38,253l.02.185c0,3.008,5.753,5,12.414,7.3,11.056,3.826,24.81,8.587,24.854,21.75a16.692,16.692,0,0,1-3.785,12.45c-4.055,4.724-10.913,7.12-20.381,7.12ZM171.532,294.1a17.4,17.4,0,0,1-4.132-12.73V241.788a5.606,5.606,0,0,1,11.212,0v41.277c.338,2.84,2.529,7.542,13.325,7.542,10.924,0,13.075-4.783,13.374-7.683-.005-.105-.008-.21-.008-.316v-40.82a5.606,5.606,0,1,1,11.211,0v39.586a17.424,17.424,0,0,1-4.157,12.728c-4.169,4.728-11.039,7.125-20.42,7.125h0C182.556,301.227,175.692,298.83,171.532,294.1Zm-45.152,6.554a33.335,33.335,0,0,1-12.943-2.619h0a33.207,33.207,0,1,1,33.6-56.583,4.831,4.831,0,0,1,.529.433c1.824,1.722,1.966,4.478.355,6.862a5.481,5.481,0,0,1-7.464,1.557l-.032.033-.709-.531-.618-.415a5.688,5.688,0,0,1-.5-.377,21.826,21.826,0,0,0-12.158-3.685h-.065a22.122,22.122,0,1,0,0,44.245,21.753,21.753,0,0,0,12.309-3.739l1.756-1.371a5.553,5.553,0,0,1,7.776.953,5.448,5.448,0,0,1-.7,7.652l-.165.129a33.171,33.171,0,0,1-20.961,7.457Zm273.514-.011a35.184,35.184,0,1,1,.066,0h0Zm-21.848-32.811a21.851,21.851,0,1,0,21.849-21.852A21.875,21.875,0,0,0,378.045,267.834Zm120.8,26.375-.01-.012,0-.325V260.507l-13.144,20.24a5.7,5.7,0,0,1-9.766.363L462.7,260.75v33.123a5.608,5.608,0,1,1-11.216,0V241.791a5.615,5.615,0,0,1,5.606-5.61h0a5.605,5.605,0,0,1,4.913,2.9l18.683,28.767L499.561,238.8a5.7,5.7,0,0,1,10.49,2.979v52.1a5.608,5.608,0,0,1-11.206.334Zm-175.837-.337V247.4H304.944a5.608,5.608,0,1,1,0-11.216h47.348a5.608,5.608,0,0,1,0,11.216H334.227v46.473a5.609,5.609,0,0,1-11.218,0Z"/></svg>