<svg xmlns="http://www.w3.org/2000/svg" xmlns:xlink="http://www.w3.org/1999/xlink" width="1920.001" height="1080" viewBox="0 0 1920.001 1080"><defs><style>.a{fill:url(#a);}.b{fill:#53371a;}.c{fill:#3a280f;}.d{fill:#1c0f19;}.e{fill:url(#b);}</style><linearGradient id="a" y1="0.519" x2="1" y2="0.519" gradientUnits="objectBoundingBox"><stop offset="0" stop-color="#b14101"/><stop offset="0.466" stop-color="#df8304"/><stop offset="1" stop-color="#f8c61c"/></linearGradient><radialGradient id="b" cx="0.5" cy="0.5" r="0.5" gradientUnits="objectBoundingBox"><stop offset="0" stop-color="#1d101a"/><stop offset="1" stop-color="#1c0f19"/></radialGradient></defs><g transform="translate(-9727 8416.918)"><rect class="a" width="1080" height="1920" transform="translate(11647 -8416.918) rotate(90)"/><path class="b" d="M8523.968,15133.867s-68.28-.423-91.946-.452c-25.93-.026-57.685,38.69-89.187,36.877-25.61-1.471-75.471-69.4-97.3-67.752-47.363,3.584-89.579-23.344-133.295-19.906-16.395,1.29-54.9,32.584-96.195,31.605-29.035-.687-45.349-38.124-62.269-38.436-20.989-.386-61.765-28-103.028-29-55.152-1.329-60.618-33.752-129.08-28.789s-78.484,69.474-136.019,73.365c-18.007,1.218-65.615,7.644-121.942,2.592-44.124-3.957-74.131,52.432-120.3,46.325-42.266-5.589-74.665,34.2-98.139,30.132-20.744-3.6-42.521-61.274-73.749-61.274-34.589,0-46.25,57.114-89.06,47.58s-26.4,64.874-115.458,33.354c-21.729-7.693-57.982-21.265-95.543-25.908-26.433-3.267-54.924,32.957-83.612,29.023-15.407-2.111-31.909-35.9-63.435-45.885s-120.45,8.365-120.45,8.365V15417.5H8523.936Z" transform="translate(3123.033 -22754.42)"/><path class="c" d="M6604,15556.974a120.111,120.111,0,0,0,36.975,7.454c14.873.637,11.271,19.553,34.936,19.524,25.932-.03,7.676,18.678,39.179,16.865,25.612-1.468,75.474-29.385,97.3-27.737,47.364,3.579,89.579-23.326,133.3-19.89,16.394,1.289,54.9,66.748,96.194,65.77,29.037-.688,45.351-38.091,62.271-38.4,20.989-.386,61.767-53.549,103.03-54.543,55.152-1.326,60.618-33.718,129.082-28.763s78.486,15.719,136.021,19.607c18.007,1.215,65.617-32.966,121.944-38.011,44.124-3.955,74.132-31.75,120.3-37.852,42.268-5.586,74.669,34.171,98.141,30.107,20.745-3.6,61.875,73.8,93.1,73.8,34.589,0,96.913,11.941,139.721,2.414s26.4-25.077,115.461-56.573c21.73-7.686,57.984,62.83,95.546,58.193,26.432-3.266,54.925-7.029,83.611-10.957,15.407-2.109,31.91,4.088,63.436-5.892s120.453,8.36,120.453,8.36v203.008H6604Z" transform="translate(3123.002 -23080.377)"/><path class="d" d="M2597.023,2484.615c-4.819-16.525,10.938-74.374,13.447-99.379-.2-19.409,2.886-17.592,15.013-43.66,4.044-7.986,3.838-11.044,18.673-13.353,6.144-4.036,13.076-9.6,13.076-12.314-3.838-1.73-9.236,6.345-15.21,8.68-4.79-.779-10.592,3.259-8.658-4.238.333-2.419,3.933-6.908,8.658-13.093a208.17,208.17,0,0,0,20.605-26.042c9.269-5.378,16.162-9.437,22.31-17.1,3.434-1.693,5.248-5.442,8.573-8.651a69.135,69.135,0,0,1,20-14.034c10-4.242,5.635-2.965,15.787-5.853,6.111-1.739,10.052-.187,17.113-1.936,4.933-1.21,8.427-4.518,13.65-5.97,3.313-.924,4.226-.706,7.706-1.53,1.732,1.53,3.773,4.009,6.926,3.288,2.136-.484,6.618,5.4,9.033,4.211,2.117-1.041,8.127,2.782,9.444,0,1.359,2.509,7.657,6.432,7.13,3.872,2.482.375,8.959,5.036,7.1,1.817-.385-.67,2.835-2.329,0-3.748a26.633,26.633,0,0,1-12.5-1.935c-3.463-6.345-7.992-.586-8.862-2.883-6.144.2-7.507-3.663-11.343-4.615.807-1.507,6.538-2.9,11.343-4.036,2.525-.59,4.935-1.239,4.935-1.239s2.57-3.749-1.644-2.8a69.257,69.257,0,0,1-19.615,4.037c-4.433,1.693-8.264.509-12.885.885-4.113-.252-8.365,4.155-12.572,6.025-4.819.483-13.416-1.551-18.449,1.743-4.177,2.177-8.311,4.389-12.613,6.776-2.208,1.209,2.7-6.861.317-5.5-.864-3.288-4.33-5.019-5.281-7.124-3.492-4.238,8.694-1.132,7.1,0,1.732.951.979,3.461,3.839,2.771-1.146.866,8.129-1.115,6.637,0,3.831-4.736,2.421-.174-6.637-1.529,1.355-2.594-2.482-4.113-5.654-5.278-2.223-.2-5.535-2.521-8.573,0-.954,2.885-.2,4.815,3.289,8.566a5.9,5.9,0,0,1,0,8.075c-3.7,3.368-8.807,4.769-13.475,8.163-4.9,4.624-14.046,13.64-18.845,16.525-9.4,8.922-14.5,14.1-10.413,1.936a247.844,247.844,0,0,1,20.982-24.8c1.89-.483,4.618-2.509,7.042-7.294.663-9.055,34.314-31.174,34.314-31.174s5.722-9.055,0-6.171-9.236,5.807-22.884,17.705c-5.74,4.948-16.741,12.719-18.469,21.253-3.661,2.454-9.237,9.518-13.275,12.025-1.359,4.039-8.844,13.908-10.563,9.8-.893-2.125-6.648-9.655-6.827-16.15-.272-4.177-4.932-8.2-7.3-11.652,0,0-1.3-8.415-3.983-11.3,1.167-3.5,7.819-10.548,12.495-14.151,3.5-2.716,11.047-4.159,13.9-7.541,0,0-1.083-4.114-6.956-2.569-2.406.631-3.175,3.085-6.725,2.568-3.94,2.195-6.018,6.171-9.812,6.171,2.4-12.2-4.023-7.613-5.369-6.171,1.79,4.153,2.8,11.073,0,11.94s-3.479-5.083-9.929-7.211-17.474-4.513-15.875-1.268,15.875,2.623,22.278,14.247c-8.214.163-20.055-.259-22.278-7.181-6.587-2.372-10.389-10.526-10.389-10.526s-5.482-6.228-4.618,0c3.794,5.626.109,4.38,7.589,14.536,10.968,0,9.061,10.583,16.162,6.545,5.569,2.135,13.274-3.629,17.026,10.382,1.067,13.093,6.838,13.093,12.323,25.867,2.86,10.357,0,14.594,0,14.594l-7.3,17.3s-8.476,11.535-20.4,25a15.147,15.147,0,0,0-4.672,8.518c-2.61,1.021-5.92,6.855-5.717,14.352a110.047,110.047,0,0,1-7.331,15.574c1.507-7.421-1.126-21.34-7.676-29.925-8.657-7.564-8.456-12.755-7.676-18.875,5.165-2.135,7.25-5.867,12.294-10.584,5.367-.983,5.773-8.075,7.878-8.278.6-3.292,7.858-3.172,8.233-8.278a46.639,46.639,0,0,1-5.219-16.927c-4.161,1.067-.811-4.423,0-11.615a16.252,16.252,0,0,0-3.008-10.843c-.751-1.368,4.281-1.655,8.233-1.529,2.163.07,3.063.607,4.671,0,3.9-1.471,29.641,8.249,3.087-3.115a8.158,8.158,0,0,1-10.413-3.872c-7.507,3.98-7.1,7.641-10.391,17.906,2.179-.036,4.647,5.853,0,11.823-.286.978-.751,3.085,2.712,5.19.707,5.759,4.335,10.843,5.115,12.977-2.32,1.035-9.529,3.548-10.9,9.8-2.1,2.39-4.1,2.5-6.85,4.639-2.179,3.348-6.427,3.927-7.783,6.809-4.318-.726-7.706-12.11-6.927-16.938-.4-2.534,1.356-4.238,4.819-5.97a21.206,21.206,0,0,1,6.725-9.4c2.722-3.679,2.6-.59,6.551-9.806-2.18-1.616-2.683-4.615,0-9.142,1.838-3.373,2.936-7.235,4.819-10.93s3.633-2.419,4.415-6.979c-.448-3.46-1.53-9.287,10.335-18.313,6.781-4.065-2.664-4.356-2.664-4.356s-1.9,3.373-10.476,11.536c-1.664,2.843-2.194,7.986-2.972,12.516-2.882,5.394-7.507,9.518-6.851,16.525-1.314,2.177-2.932,3.173-1.981,9.142-2.329,2.042-1.761,4.036-5.812,4.9-1.211,2.965-2.311,7.383-5.57,8.651-2.136,3.172-2.685,3.748-4.843,2.48-2.482-1.615-2.278-5.478-2.482-8.163-1.4-1.783-2.326-5.66-4.213-7.872a176.181,176.181,0,0,1-17.893-17.016c1.531-2.97,6.624-3.662,8.831-6.171s3.463-4.643,0-3.872c-.932.211-5.165,7.443-7.507,4.153-4.015,1.936-4.9,4.968-6.35,2.825s2.38-7.564,1.184-9.633-2.986-1.817-5.974,1.355c0,3.431-1.155,8.45-1.356,11.334-3.163-.09-7.868,1.372-13.447,0-2.906-.711-5.4-4.036-8.11-5.882a23.5,23.5,0,0,1-8.081,0c-7.715-1.823-14.94-7.5-17.488-6.807-1,.276-8.42,2-6.725,4.036.849,1.024,3.688-1.1,6.725,0,3.479,1.263.777-.837,8.081,2.771a17.981,17.981,0,0,0,9.406,2.825c2.179,1.2,5.98-.075,8.081,1.527,3,2.3.979,4.615,3.875,5.566,3.664.75,16.738-.779,19.048,0,1,.484,3.632-1.515,5.974,2.306a64.439,64.439,0,0,1,14.027,13.352c2.707,5.363,4.908,11.328,7.705,18.168a19.683,19.683,0,0,1,1.53,9.805c2.248,5.9,2.308,9.633,7.331,15.949,1.986,5.166.845,10.374,2.683,15.487,2.18,6.05,7.906,11.034,10.188,15.574a77.566,77.566,0,0,0,1.185,11.535,112.81,112.81,0,0,0-1.185,17.13c-.581,3.325.744,5.391,0,9.316-.543,2.879-1.6,1.877-2.278,5.19-1.366,6.64-.761,16.919-2.338,24.225-.848,3.935-3.036,7.26-4.039,11.246-1.2,4.74-3.281,9.643-4.415,14.034-3.085,11.958-2.511,17.851-4.444,20.1-2.664-2.809-5.569-14.161-10.066-25.019-4.359-10.485-6.558-20.379-7.25-18.066-.485,1.6-1.906-.288-3.262,2.393-.036,1.723-1.732-6.519-1.732-6.519s-2.634-.919-2.482,1.817a80.656,80.656,0,0,1,2.481,15.658c1.938,6.547,5.4,12.315,4.994,19.814.53,4.486,3.6,9.813,4.039,14.594a221.079,221.079,0,0,1,0,38.932S2581.425,2494.753,2597.023,2484.615Z" transform="translate(7312.082 -9837.697)"/><path class="d" d="M2739.1,2535.517c5.653-19.4-12.83-87.3-15.772-116.653.236-22.783-3.385-20.65-17.61-51.25-4.743-9.374-4.5-12.963-21.9-15.673-7.206-4.738-15.338-11.274-15.338-14.456,4.5-2.031,10.834,7.448,17.841,10.189,5.618-.914,12.424,3.826,10.155-4.974-.39-2.839-4.613-8.11-10.155-15.369a244.257,244.257,0,0,1-24.169-30.568c-10.873-6.314-18.958-11.079-26.169-20.074-4.028-1.988-6.155-6.388-10.055-10.154a81.093,81.093,0,0,0-23.459-16.474c-11.73-4.979-6.609-3.48-18.517-6.871-7.168-2.041-11.79-.219-20.072-2.273-5.786-1.42-9.885-5.3-16.011-7.007-3.886-1.084-4.957-.829-9.039-1.8-2.031,1.8-4.426,4.707-8.124,3.86-2.506-.568-7.763,6.34-10.595,4.943-2.482-1.221-9.532,3.266-11.077,0-1.594,2.946-8.982,7.549-8.363,4.544-2.911.44-10.509,5.911-8.328,2.133.452-.787-3.326-2.734,0-4.4a31.211,31.211,0,0,0,14.656-2.271c4.062-7.449,9.374-.688,10.4-3.384,7.206.236,8.805-4.3,13.3-5.417-.947-1.769-7.669-3.408-13.3-4.738-2.962-.692-5.79-1.454-5.79-1.454s-3.014-4.4,1.929-3.283a81.18,81.18,0,0,0,23.008,4.739c5.2,1.987,9.693.6,15.114,1.038,4.825-.3,9.812,4.877,14.746,7.072,5.653.568,15.737-1.821,21.641,2.046,4.9,2.555,9.748,5.152,14.794,7.953,2.59,1.42-3.167-8.053-.373-6.456,1.014-3.86,5.079-5.891,6.195-8.363,4.1-4.974-10.2-1.329-8.327,0-2.031,1.116-1.148,4.062-4.5,3.252,1.343,1.017-9.535-1.309-7.785,0-4.494-5.559-2.84-.2,7.785-1.8-1.59-3.045,2.911-4.828,6.632-6.195,2.608-.235,6.492-2.959,10.055,0,1.119,3.386.236,5.653-3.857,10.055a6.931,6.931,0,0,0,0,9.479c4.34,3.954,10.331,5.6,15.806,9.581,5.752,5.428,16.474,16.011,22.1,19.4,11.024,10.473,17.012,16.548,12.214,2.272a290.93,290.93,0,0,0-24.612-29.115c-2.216-.567-5.417-2.945-8.26-8.562-.777-10.629-40.248-36.593-40.248-36.593s-6.712-10.629,0-7.243,10.834,6.817,26.842,20.783c6.733,5.808,19.636,14.929,21.663,24.947,4.3,2.88,10.834,11.172,15.571,14.115,1.595,4.74,10.374,16.325,12.39,11.509,1.048-2.494,7.8-11.333,8.009-18.957.319-4.9,5.785-9.629,8.565-13.677,0,0,1.526-9.877,4.672-13.264-1.368-4.113-9.171-12.382-14.656-16.611-4.1-3.188-12.958-4.882-16.308-8.852,0,0,1.271-4.829,8.158-3.015,2.823.741,3.725,3.621,7.888,3.014,4.622,2.576,7.059,7.243,11.51,7.243-2.812-14.318,4.719-8.936,6.3-7.243-2.1,4.874-3.284,13,0,14.015s4.081-5.966,11.645-8.464,20.5-5.3,18.621-1.489-18.621,3.079-26.131,16.724c9.634.192,23.524-.3,26.131-8.43,7.726-2.783,12.185-12.356,12.185-12.356s6.431-7.311,5.417,0c-4.451,6.6-.128,5.142-8.9,17.063-12.865,0-10.629,12.423-18.958,7.684-6.533,2.5-15.571-4.261-19.971,12.185-1.252,15.369-8.021,15.369-14.455,30.364-3.354,12.157,0,17.131,0,17.131l8.567,20.309s9.941,13.54,23.933,29.35a17.787,17.787,0,0,1,5.479,10c3.061,1.2,6.944,8.048,6.706,16.847a129.113,129.113,0,0,0,8.6,18.281c-1.767-8.711,1.322-25.049,9-35.126,10.154-8.879,9.919-14.972,9-22.156-6.058-2.505-8.5-6.888-14.421-12.424-6.295-1.154-6.772-9.479-9.24-9.717-.7-3.863-9.218-3.724-9.657-9.717a54.775,54.775,0,0,0,6.122-19.869c4.879,1.253.951-5.192,0-13.634a19.085,19.085,0,0,1,3.528-12.728c.881-1.6-5.022-1.943-9.657-1.8-2.537.083-3.593.713-5.479,0-4.57-1.727-34.767,9.684-3.62-3.656a9.566,9.566,0,0,0,12.214-4.545c8.8,4.672,8.327,8.969,12.188,21.018-2.555-.042-5.451,6.871,0,13.878.335,1.148.881,3.621-3.181,6.093-.829,6.76-5.085,12.727-6,15.233,2.721,1.216,11.177,4.165,12.781,11.51,2.469,2.806,4.812,2.933,8.036,5.445,2.556,3.931,7.539,4.61,9.129,7.993,5.065-.852,9.038-14.215,8.125-19.882.468-2.975-1.59-4.975-5.653-7.009a24.887,24.887,0,0,0-7.888-11.032c-3.192-4.318-3.053-.693-7.684-11.51,2.556-1.9,3.147-5.417,0-10.731-2.156-3.96-3.444-8.493-5.653-12.831s-4.261-2.84-5.178-8.191c.526-4.062,1.795-10.9-12.123-21.5-7.953-4.772,3.125-5.113,3.125-5.113s2.232,3.959,12.288,13.541c1.951,3.337,2.573,9.375,3.486,14.691,3.38,6.331,8.805,11.172,8.035,19.4,1.542,2.556,3.44,3.725,2.324,10.731,2.732,2.4,2.065,4.738,6.817,5.755,1.42,3.48,2.71,8.666,6.533,10.154,2.5,3.723,3.149,4.4,5.681,2.911,2.91-1.9,2.671-6.431,2.91-9.582,1.645-2.093,2.729-6.644,4.942-9.24a206.59,206.59,0,0,0,20.988-19.974c-1.8-3.485-7.769-4.3-10.358-7.244s-4.062-5.451,0-4.545c1.094.247,6.058,8.737,8.805,4.875,4.709,2.272,5.747,5.831,7.448,3.316s-2.792-8.879-1.389-11.308,3.5-2.133,7.008,1.591c0,4.028,1.354,9.918,1.59,13.3,3.71-.1,9.229,1.611,15.772,0,3.408-.834,6.331-4.737,9.513-6.9a27.537,27.537,0,0,0,9.479,0c9.049-2.139,17.524-8.806,20.513-7.99,1.167.324,9.876,2.346,7.888,4.738-1,1.2-4.326-1.293-7.888,0-4.082,1.483-.912-.983-9.479,3.252a21.082,21.082,0,0,1-11.033,3.316c-2.556,1.4-7.014-.088-9.478,1.792-3.525,2.7-1.148,5.417-4.545,6.533-4.3.881-19.633-.914-22.343,0-1.171.569-4.26-1.778-7.007,2.707a75.582,75.582,0,0,0-16.453,15.672c-3.175,6.3-5.757,13.3-9.038,21.327a23.119,23.119,0,0,0-1.795,11.509c-2.636,6.922-2.706,11.308-8.6,18.721-2.33,6.064-.991,12.177-3.148,18.178-2.556,7.1-9.273,12.952-11.949,18.281a91.1,91.1,0,0,1-1.39,13.541,132.57,132.57,0,0,1,1.39,20.107c.681,3.9-.872,6.329,0,10.936.637,3.38,1.874,2.2,2.672,6.093,1.6,7.794.892,19.86,2.742,28.436.995,4.619,3.562,8.521,4.738,13.2,1.4,5.564,3.849,11.318,5.178,16.474,3.619,14.036,2.945,20.954,5.212,23.6,3.125-3.3,6.533-16.622,11.807-29.368,5.113-12.308,7.692-23.922,8.5-21.207.568,1.881,2.236-.338,3.826,2.809.042,2.023,2.031-7.652,2.031-7.652s3.09-1.079,2.911,2.132a94.793,94.793,0,0,0-2.911,18.38c-2.273,7.685-6.332,14.456-5.858,23.257-.622,5.267-4.221,11.519-4.738,17.131a259.687,259.687,0,0,0,0,45.7S2757.392,2547.417,2739.1,2535.517Z" transform="translate(8042.097 -9889.909)"/><path class="d" d="M2596.809,2484.241c-4.809-16.5,10.916-74.279,13.419-99.251-.2-19.384,2.881-17.569,14.983-43.6,4.036-7.976,3.831-11.029,18.635-13.336,6.131-4.03,13.05-9.591,13.05-12.3-3.83-1.729-9.217,6.336-15.179,8.668-4.781-.778-10.571,3.255-8.64-4.232.332-2.416,3.925-6.9,8.64-13.076a207.779,207.779,0,0,0,20.563-26.008c9.251-5.372,16.129-9.426,22.265-17.08,3.427-1.691,5.237-5.435,8.555-8.639a68.991,68.991,0,0,1,19.96-14.017c9.981-4.237,5.623-2.961,15.755-5.846,6.1-1.737,10.032-.187,17.078-1.934,4.923-1.208,8.41-4.512,13.622-5.962,3.307-.922,4.218-.705,7.69-1.528,1.728,1.528,3.765,4,6.912,3.284,2.132-.483,6.6,5.393,9.014,4.2,2.112-1.039,8.11,2.779,9.424,0,1.356,2.506,7.643,6.424,7.116,3.867,2.477.374,8.941,5.029,7.085,1.814-.384-.669,2.83-2.327,0-3.744a26.553,26.553,0,0,1-12.47-1.932c-3.456-6.337-7.976-.586-8.844-2.879-6.131.2-7.492-3.659-11.321-4.609.8-1.505,6.525-2.9,11.321-4.031,2.521-.589,4.925-1.237,4.925-1.237s2.565-3.744-1.641-2.793a69.077,69.077,0,0,1-19.575,4.031c-4.425,1.691-8.247.509-12.859.883-4.1-.252-8.348,4.15-12.546,6.018-4.809.483-13.389-1.549-18.412,1.74-4.169,2.174-8.294,4.384-12.588,6.767-2.2,1.208,2.694-6.852.317-5.493-.863-3.285-4.321-5.012-5.271-7.116-3.485-4.232,8.676-1.131,7.085,0,1.729.95.977,3.456,3.831,2.768-1.143.865,8.113-1.114,6.624,0,3.824-4.73,2.417-.174-6.624-1.528,1.353-2.591-2.476-4.108-5.643-5.271-2.219-.2-5.524-2.518-8.555,0-.952,2.881-.2,4.81,3.282,8.555a5.9,5.9,0,0,1,0,8.064c-3.693,3.364-8.79,4.763-13.448,8.152-4.894,4.617-14.017,13.623-18.806,16.5-9.38,8.911-14.474,14.079-10.393,1.934a247.5,247.5,0,0,1,20.94-24.772c1.885-.482,4.609-2.506,7.028-7.285.661-9.043,34.244-31.134,34.244-31.134s5.71-9.043,0-6.163-9.218,5.8-22.838,17.683c-5.729,4.942-16.707,12.7-18.432,21.226-3.654,2.45-9.218,9.505-13.248,12.009-1.356,4.033-8.827,13.89-10.542,9.792-.892-2.122-6.635-9.642-6.814-16.129-.271-4.171-4.921-8.193-7.287-11.636,0,0-1.3-8.4-3.976-11.286,1.164-3.5,7.8-10.535,12.469-14.133,3.489-2.713,11.025-4.154,13.875-7.531,0,0-1.081-4.109-6.941-2.565-2.4.631-3.168,3.081-6.711,2.565-3.932,2.192-6.005,6.163-9.792,6.163,2.392-12.183-4.015-7.6-5.358-6.163,1.786,4.147,2.794,11.059,0,11.925s-3.472-5.076-9.908-7.2-17.439-4.507-15.843-1.267,15.843,2.62,22.233,14.229c-8.2.163-20.015-.258-22.233-7.172-6.573-2.368-10.368-10.513-10.368-10.513s-5.471-6.22-4.609,0c3.787,5.619.109,4.375,7.574,14.517,10.946,0,9.043,10.57,16.13,6.538,5.558,2.132,13.247-3.625,16.991,10.368,1.065,13.076,6.824,13.076,12.3,25.834,2.854,10.344,0,14.575,0,14.575l-7.289,17.28s-8.458,11.521-20.363,24.971a15.126,15.126,0,0,0-4.662,8.507c-2.6,1.02-5.909,6.846-5.706,14.333a109.909,109.909,0,0,1-7.316,15.554c1.5-7.411-1.124-21.313-7.661-29.887-8.639-7.555-8.439-12.739-7.661-18.851,5.156-2.132,7.236-5.86,12.27-10.57,5.356-.982,5.761-8.065,7.862-8.268.6-3.287,7.842-3.168,8.216-8.267a46.6,46.6,0,0,1-5.208-16.905c-4.152,1.066-.809-4.417,0-11.6a16.237,16.237,0,0,0-3-10.829c-.749-1.366,4.273-1.653,8.217-1.527,2.158.07,3.057.606,4.661,0,3.888-1.469,29.581,8.239,3.081-3.11a8.139,8.139,0,0,1-10.392-3.867c-7.491,3.976-7.085,7.632-10.37,17.884,2.175-.036,4.638,5.845,0,11.808-.285.977-.75,3.081,2.707,5.184.7,5.751,4.326,10.829,5.1,12.96-2.315,1.035-9.51,3.543-10.875,9.792-2.1,2.388-4.094,2.5-6.836,4.633-2.175,3.344-6.414,3.922-7.768,6.8-4.309-.725-7.69-12.1-6.912-16.917-.4-2.531,1.353-4.232,4.809-5.962a21.174,21.174,0,0,1,6.711-9.387c2.716-3.674,2.6-.589,6.537-9.792-2.175-1.615-2.677-4.609,0-9.13,1.834-3.369,2.93-7.227,4.81-10.917s3.625-2.416,4.406-6.969c-.447-3.456-1.528-9.275,10.314-18.29,6.767-4.06-2.659-4.35-2.659-4.35s-1.9,3.369-10.454,11.521c-1.66,2.839-2.189,7.976-2.966,12.5-2.876,5.386-7.492,9.505-6.837,16.5-1.312,2.175-2.926,3.169-1.977,9.13-2.325,2.04-1.758,4.031-5.8,4.9-1.208,2.961-2.305,7.373-5.559,8.639-2.131,3.168-2.679,3.744-4.833,2.477-2.477-1.613-2.273-5.471-2.477-8.152-1.4-1.781-2.322-5.653-4.2-7.862a175.832,175.832,0,0,1-17.856-16.994c1.528-2.966,6.61-3.657,8.813-6.163s3.456-4.637,0-3.867c-.93.21-5.154,7.433-7.492,4.148-4.007,1.933-4.889,4.961-6.337,2.822s2.375-7.555,1.181-9.621-2.979-1.815-5.962,1.353c0,3.427-1.153,8.439-1.354,11.32-3.156-.09-7.852,1.37-13.419,0-2.9-.711-5.387-4.031-8.094-5.875a23.424,23.424,0,0,1-8.065,0c-7.7-1.82-14.909-7.492-17.453-6.8-.993.276-8.4,2-6.711,4.031.848,1.023,3.681-1.1,6.711,0,3.472,1.261.776-.836,8.064,2.767a17.94,17.94,0,0,0,9.387,2.822c2.175,1.193,5.968-.075,8.065,1.524,3,2.294.977,4.609,3.866,5.559,3.656.75,16.7-.778,19.009,0,1,.483,3.625-1.512,5.962,2.3a64.332,64.332,0,0,1,14,13.334c2.7,5.356,4.9,11.314,7.689,18.146a19.669,19.669,0,0,1,1.527,9.792c2.243,5.889,2.3,9.621,7.316,15.928,1.982,5.159.844,10.361,2.677,15.467,2.176,6.042,7.89,11.02,10.167,15.554a77.466,77.466,0,0,0,1.183,11.52,112.677,112.677,0,0,0-1.183,17.108c-.58,3.321.742,5.384,0,9.3-.542,2.876-1.594,1.875-2.273,5.184-1.363,6.631-.76,16.9-2.333,24.193-.846,3.93-3.03,7.25-4.031,11.231-1.194,4.734-3.275,9.63-4.406,14.016-3.08,11.942-2.506,17.828-4.435,20.075-2.658-2.806-5.558-14.143-10.046-24.987-4.351-10.472-6.544-20.354-7.235-18.043-.484,1.6-1.9-.288-3.255,2.39-.036,1.721-1.728-6.511-1.728-6.511s-2.629-.918-2.477,1.814a80.658,80.658,0,0,1,2.476,15.638c1.934,6.538,5.387,12.3,4.984,19.788.529,4.481,3.591,9.8,4.031,14.575a220.961,220.961,0,0,1,0,38.883S2581.242,2494.365,2596.809,2484.241Z" transform="translate(7725.115 -9837.697)"/><path class="d" d="M2702.055,2484.206c4.809-16.5-10.915-74.27-13.417-99.24.2-19.381-2.88-17.567-14.982-43.6-4.035-7.975-3.83-11.028-18.633-13.334-6.13-4.03-13.049-9.59-13.049-12.3,3.83-1.729,9.216,6.335,15.178,8.667,4.779-.778,10.57,3.255,8.639-4.232-.331-2.416-3.924-6.9-8.639-13.074a207.765,207.765,0,0,1-20.562-26.005c-9.25-5.371-16.127-9.425-22.261-17.077-3.427-1.691-5.237-5.434-8.555-8.638a68.984,68.984,0,0,0-19.958-14.014c-9.979-4.237-5.623-2.961-15.753-5.845-6.1-1.736-10.03-.187-17.076-1.934-4.922-1.208-8.409-4.511-13.621-5.961-3.306-.922-4.217-.705-7.689-1.528-1.728,1.528-3.765,4-6.911,3.284-2.131-.483-6.6,5.393-9.012,4.2-2.112-1.039-8.11,2.779-9.423,0-1.357,2.505-7.642,6.422-7.115,3.866-2.477.374-8.94,5.029-7.085,1.814.384-.669-2.829-2.326,0-3.743a26.556,26.556,0,0,0,12.469-1.932c3.455-6.336,7.975-.586,8.843-2.879,6.131.2,7.491-3.658,11.319-4.608-.8-1.5-6.524-2.9-11.319-4.03-2.52-.589-4.925-1.237-4.925-1.237s-2.565-3.743,1.64-2.793a69.06,69.06,0,0,0,19.573,4.031c4.424,1.691,8.247.509,12.858.884,4.1-.252,8.347,4.149,12.544,6.016,4.809.483,13.387-1.549,18.41,1.741,4.168,2.173,8.292,4.383,12.586,6.766,2.2,1.208-2.694-6.851-.317-5.492.863-3.284,4.321-5.012,5.271-7.115,3.484-4.232-8.675-1.131-7.085,0-1.728.95-.977,3.456-3.83,2.767,1.143.865-8.112-1.113-6.623,0-3.823-4.729-2.417-.174,6.623-1.527-1.353-2.59,2.476-4.107,5.642-5.27,2.218-.2,5.523-2.517,8.554,0,.952,2.881.2,4.809-3.281,8.554a5.9,5.9,0,0,0,0,8.064c3.692,3.364,8.788,4.763,13.446,8.151,4.894,4.617,14.015,13.621,18.8,16.5,9.378,8.909,14.472,14.077,10.391,1.933a247.458,247.458,0,0,0-20.937-24.769c-1.885-.482-4.608-2.5-7.027-7.284-.661-9.042-34.24-31.131-34.24-31.131s-5.71-9.042,0-6.162,9.216,5.8,22.835,17.681c5.728,4.941,16.705,12.7,18.43,21.223,3.654,2.45,9.217,9.5,13.246,12.007,1.356,4.033,8.825,13.888,10.541,9.791.892-2.121,6.635-9.641,6.813-16.127.271-4.17,4.921-8.192,7.287-11.635,0,0,1.3-8.4,3.975-11.284-1.164-3.5-7.8-10.534-12.468-14.131-3.489-2.713-11.024-4.153-13.874-7.53,0,0,1.081-4.108,6.941-2.565,2.4.63,3.168,3.08,6.71,2.564,3.931,2.192,6,6.162,9.792,6.162-2.393-12.181,4.014-7.6,5.357-6.162-1.786,4.147-2.793,11.058,0,11.923s3.472-5.075,9.907-7.2,17.437-4.506,15.842-1.266-15.842,2.619-22.23,14.228c8.2.163,20.012-.259,22.23-7.172,6.573-2.368,10.366-10.511,10.366-10.511s5.471-6.22,4.608,0c-3.786,5.618-.108,4.374-7.573,14.515-10.945,0-9.042,10.569-16.128,6.537-5.558,2.131-13.246-3.624-16.99,10.367-1.065,13.075-6.824,13.075-12.3,25.831-2.854,10.342,0,14.573,0,14.573l7.289,17.277s8.457,11.519,20.36,24.969a15.131,15.131,0,0,1,4.661,8.506c2.6,1.019,5.908,6.845,5.705,14.331a109.927,109.927,0,0,0,7.314,15.553c-1.5-7.411,1.124-21.311,7.66-29.884,8.639-7.554,8.438-12.737,7.66-18.848-5.154-2.132-7.234-5.859-12.267-10.569-5.355-.982-5.762-8.064-7.861-8.267-.6-3.287-7.841-3.168-8.215-8.266a46.6,46.6,0,0,0,5.208-16.9c4.151,1.066.809-4.417,0-11.6a16.237,16.237,0,0,1,3-10.828c.75-1.366-4.272-1.653-8.216-1.527-2.158.07-3.056.606-4.661,0-3.887-1.469-29.577,8.237-3.08-3.11a8.138,8.138,0,0,0,10.39-3.866c7.49,3.975,7.084,7.631,10.368,17.881-2.174-.037-4.637,5.845,0,11.807.285.977.75,3.081-2.706,5.183-.705,5.75-4.325,10.828-5.1,12.959,2.314,1.034,9.509,3.542,10.873,9.791,2.1,2.387,4.094,2.5,6.836,4.632,2.175,3.344,6.414,3.922,7.767,6.8,4.309-.725,7.689-12.094,6.912-16.915.4-2.53-1.353-4.231-4.809-5.961a21.173,21.173,0,0,0-6.71-9.386c-2.716-3.673-2.6-.589-6.537-9.792,2.175-1.614,2.677-4.608,0-9.128-1.834-3.369-2.93-7.226-4.809-10.916s-3.625-2.416-4.405-6.968c.447-3.456,1.527-9.274-10.313-18.288-6.766-4.06,2.658-4.35,2.658-4.35s1.9,3.368,10.453,11.519c1.66,2.839,2.189,7.975,2.965,12.5,2.875,5.386,7.491,9.5,6.836,16.5,1.312,2.174,2.926,3.168,1.977,9.129,2.324,2.039,1.757,4.03,5.8,4.9,1.208,2.96,2.306,7.372,5.558,8.639,2.132,3.167,2.679,3.743,4.833,2.476,2.477-1.612,2.273-5.47,2.477-8.151,1.4-1.781,2.321-5.652,4.2-7.861a175.741,175.741,0,0,0,17.854-16.992c-1.527-2.965-6.609-3.656-8.812-6.162s-3.455-4.637,0-3.867c.931.21,5.154,7.432,7.491,4.147,4.006,1.933,4.889,4.961,6.336,2.821s-2.375-7.554-1.182-9.62,2.979-1.815,5.961,1.353c0,3.427,1.153,8.438,1.353,11.319,3.156-.09,7.851,1.369,13.417,0,2.9-.71,5.387-4.031,8.093-5.874a23.429,23.429,0,0,0,8.064,0c7.7-1.82,14.908-7.491,17.451-6.8.993.275,8.4,2,6.71,4.03-.848,1.022-3.68-1.1-6.71,0-3.473,1.261-.776-.836-8.064,2.767a17.941,17.941,0,0,1-9.386,2.821c-2.174,1.193-5.967-.075-8.063,1.524-3,2.294-.977,4.608-3.867,5.558-3.656.75-16.7-.778-19.007,0-1,.484-3.625-1.512-5.961,2.3a64.317,64.317,0,0,0-14,13.333c-2.7,5.356-4.9,11.312-7.688,18.143a19.662,19.662,0,0,0-1.526,9.792c-2.243,5.888-2.3,9.619-7.315,15.926-1.982,5.159-.843,10.359-2.677,15.465-2.175,6.041-7.889,11.019-10.166,15.552a77.472,77.472,0,0,1-1.183,11.519,112.723,112.723,0,0,1,1.183,17.106c.58,3.32-.742,5.384,0,9.3.542,2.875,1.594,1.875,2.273,5.183,1.363,6.631.76,16.9,2.333,24.191.846,3.929,3.03,7.25,4.03,11.23,1.193,4.733,3.275,9.629,4.405,14.014,3.079,11.941,2.506,17.826,4.435,20.073,2.658-2.805,5.557-14.141,10.044-24.984,4.35-10.47,6.544-20.351,7.235-18.041.483,1.6,1.9-.288,3.255,2.39.036,1.721,1.727-6.51,1.727-6.51s2.629-.917,2.477,1.814a80.625,80.625,0,0,0-2.476,15.636c-1.933,6.538-5.387,12.3-4.983,19.786-.529,4.48-3.591,9.8-4.03,14.573a220.888,220.888,0,0,0,0,38.878S2717.619,2494.329,2702.055,2484.206Z" transform="translate(8762.722 -9837.697)"/><path class="d" d="M2672.129,2442.751c4.127-14.162-9.367-63.741-11.515-85.171.172-16.635-2.473-15.077-12.858-37.418-3.463-6.845-3.287-9.465-15.991-11.444-5.261-3.459-11.2-8.231-11.2-10.553,3.287-1.483,7.909,5.438,13.025,7.439,4.1-.667,9.071,2.794,7.415-3.631-.285-2.073-3.368-5.921-7.415-11.222a178.325,178.325,0,0,1-17.646-22.318c-7.939-4.61-13.841-8.089-19.106-14.656-2.941-1.451-4.494-4.664-7.342-7.414a59.222,59.222,0,0,0-17.129-12.028c-8.565-3.635-4.826-2.541-13.52-5.016-5.234-1.49-8.609-.16-14.656-1.659-4.224-1.037-7.217-3.872-11.69-5.116-2.837-.792-3.619-.605-6.6-1.312-1.483,1.312-3.231,3.437-5.931,2.819-1.829-.415-5.668,4.628-7.735,3.608-1.813-.892-6.96,2.385-8.087,0-1.165,2.151-6.558,5.513-6.106,3.318-2.125.322-7.672,4.316-6.081,1.557.33-.575-2.427-2,0-3.213a22.789,22.789,0,0,0,10.7-1.658c2.965-5.438,6.844-.5,7.589-2.471,5.261.173,6.429-3.139,9.714-3.954-.69-1.292-5.6-2.488-9.714-3.459-2.163-.505-4.226-1.062-4.226-1.062s-2.2-3.213,1.408-2.4a59.25,59.25,0,0,0,16.8,3.459c3.8,1.452,7.077.437,11.035.759,3.523-.217,7.164,3.561,10.766,5.164,4.127.414,11.49-1.33,15.8,1.493,3.577,1.865,7.117,3.762,10.8,5.807,1.892,1.036-2.311-5.88-.271-4.714.74-2.818,3.708-4.3,4.523-6.106,2.991-3.632-7.445-.971-6.08,0-1.483.815-.838,2.966-3.288,2.375.981.742-6.961-.956-5.684,0-3.281-4.059-2.073-.149,5.684-1.311-1.161-2.223,2.126-3.526,4.843-4.524,1.9-.171,4.74-2.16,7.342,0,.817,2.473.173,4.127-2.816,7.342a5.059,5.059,0,0,0,0,6.92c3.169,2.887,7.543,4.088,11.54,7,4.2,3.963,12.028,11.69,16.139,14.162,8.049,7.646,12.421,12.082,8.918,1.659a212.245,212.245,0,0,0-17.97-21.258c-1.618-.414-3.954-2.15-6.031-6.252-.567-7.76-29.386-26.717-29.386-26.717s-4.9-7.76,0-5.289,7.91,4.977,19.6,15.174c4.916,4.241,14.337,10.9,15.817,18.215,3.136,2.1,7.91,8.157,11.369,10.305,1.164,3.461,7.574,11.92,9.046,8.4.765-1.821,5.694-8.275,5.847-13.841.232-3.58,4.223-7.031,6.254-9.986,0,0,1.114-7.212,3.412-9.685-1-3-6.7-9.04-10.7-12.128-2.994-2.328-9.461-3.564-11.907-6.463,0,0,.927-3.526,5.957-2.2,2.061.54,2.719,2.643,5.759,2.2,3.374,1.881,5.154,5.289,8.4,5.289-2.053-10.454,3.446-6.525,4.6-5.289-1.533,3.559-2.4,9.49,0,10.233s2.98-4.356,8.5-6.18,14.965-3.867,13.6-1.086-13.6,2.248-19.08,12.21c7.034.14,17.176-.222,19.08-6.155,5.64-2.032,8.9-9.021,8.9-9.021s4.7-5.338,3.955,0c-3.249,4.822-.093,3.754-6.5,12.458-9.392,0-7.76,9.071-13.841,5.611-4.77,1.829-11.369-3.111-14.581,8.9-.914,11.221-5.857,11.221-10.554,22.17-2.449,8.876,0,12.507,0,12.507l6.255,14.828s7.259,9.886,17.474,21.429a12.986,12.986,0,0,1,4,7.3c2.235.875,5.07,5.875,4.9,12.3a94.3,94.3,0,0,0,6.278,13.347c-1.291-6.36.965-18.289,6.574-25.647,7.414-6.483,7.241-10.931,6.574-16.176-4.424-1.829-6.209-5.029-10.529-9.071-4.6-.842-4.944-6.921-6.747-7.094-.512-2.821-6.73-2.719-7.051-7.095a39.992,39.992,0,0,0,4.47-14.507c3.563.915.694-3.79,0-9.954a13.935,13.935,0,0,1,2.575-9.292c.643-1.171-3.667-1.419-7.051-1.31-1.852.06-2.623.521-4,0-3.337-1.261-25.385,7.07-2.644-2.669a6.984,6.984,0,0,0,8.917-3.318c6.428,3.412,6.08,6.549,8.9,15.346-1.866-.031-3.98,5.016,0,10.133.244.838.643,2.644-2.323,4.448-.6,4.936-3.712,9.292-4.38,11.122,1.987.887,8.16,3.04,9.332,8.4,1.8,2.048,3.513,2.142,5.867,3.975,1.866,2.87,5.5,3.365,6.665,5.836,3.7-.622,6.6-10.379,5.932-14.517.342-2.172-1.161-3.632-4.127-5.117a18.164,18.164,0,0,0-5.759-8.055c-2.331-3.152-2.229-.505-5.609-8.4,1.866-1.386,2.3-3.955,0-7.835-1.575-2.891-2.514-6.2-4.127-9.368s-3.111-2.073-3.781-5.98c.384-2.966,1.311-7.959-8.851-15.7-5.807-3.484,2.281-3.733,2.281-3.733s1.629,2.891,8.971,9.887c1.425,2.436,1.879,6.844,2.545,10.726,2.468,4.622,6.429,8.157,5.866,14.162,1.126,1.867,2.511,2.72,1.7,7.835,1.995,1.75,1.508,3.459,4.977,4.2,1.037,2.541,1.979,6.327,4.77,7.414,1.829,2.719,2.3,3.213,4.148,2.125,2.125-1.384,1.951-4.7,2.125-7,1.2-1.528,1.993-4.851,3.609-6.746a150.9,150.9,0,0,0,15.323-14.583c-1.311-2.545-5.672-3.138-7.563-5.289s-2.965-3.979,0-3.319c.8.18,4.424,6.379,6.429,3.56,3.438,1.659,4.2,4.258,5.438,2.421s-2.038-6.483-1.014-8.256,2.557-1.558,5.117,1.161c0,2.941.989,7.242,1.161,9.714,2.708-.077,6.738,1.176,11.516,0,2.488-.61,4.623-3.459,6.945-5.041a20.126,20.126,0,0,0,6.921,0c6.607-1.562,12.795-6.429,14.978-5.834.852.237,7.21,1.713,5.759,3.459-.728.877-3.159-.944-5.759,0-2.98,1.082-.667-.718-6.921,2.375a15.4,15.4,0,0,1-8.055,2.421c-1.867,1.024-5.121-.064-6.92,1.308-2.574,1.968-.838,3.955-3.318,4.77-3.138.643-14.335-.667-16.313,0-.855.415-3.111-1.3-5.116,1.977a55.18,55.18,0,0,0-12.012,11.443c-2.318,4.6-4.2,9.708-6.6,15.571a16.879,16.879,0,0,0-1.31,8.4c-1.925,5.053-1.977,8.256-6.278,13.669-1.7,4.427-.724,8.891-2.3,13.273-1.867,5.185-6.771,9.457-8.725,13.348a66.474,66.474,0,0,1-1.015,9.886,96.7,96.7,0,0,1,1.015,14.681c.5,2.85-.637,4.621,0,7.984.465,2.468,1.368,1.609,1.951,4.448,1.169,5.691.652,14.5,2,20.762.727,3.372,2.6,6.222,3.459,9.638,1.024,4.062,2.81,8.264,3.781,12.028,2.642,10.248,2.15,15.3,3.805,17.228,2.281-2.407,4.77-12.136,8.62-21.442,3.734-8.986,5.617-17.466,6.209-15.483.416,1.373,1.633-.248,2.794,2.051.031,1.477,1.483-5.587,1.483-5.587s2.256-.788,2.126,1.557a69.159,69.159,0,0,0-2.125,13.419c-1.659,5.61-4.623,10.555-4.277,16.981-.454,3.845-3.082,8.41-3.459,12.508a189.521,189.521,0,0,0,0,33.366S2685.487,2451.439,2672.129,2442.751Z" transform="translate(8400.822 -9795.458)"/><g transform="translate(11132.867 -7513.435)"><path class="d" d="M107.1,120.577a28.9,28.9,0,0,1-7.67-1.245c-3.514-5.721-3.171-12.73-2.773-20.843.637-13,1.429-29.178-13.058-48.366-33.472-24.006-64.894-26.6-76.853-26.6A59,59,0,0,0,0,23.838H0v-.023a9.084,9.084,0,0,1,5.838-5.754,12.9,12.9,0,0,1,3.862-.5,36.878,36.878,0,0,1,4.441.335l.6.077.132.017a24.658,24.658,0,0,0,2.667.245,2.1,2.1,0,0,0,1-.171c.106-.062.152-.132.142-.214-.123-.908-7.406-2.89-7.479-2.914.252-.237,1.286-.989,3.945-.989a25.693,25.693,0,0,1,6.4.99c8.174,2.175,22.546,8.63,23.159,8.9.3.191,7.3,4.667,12.581,4.667a8.4,8.4,0,0,0,.874-.043c5.281-.56,8.182-6.671,8.3-6.93.339-1.457-3.423-2.7-7.779-4.131-4.858-1.6-10.364-3.411-11.086-5.924A3.417,3.417,0,0,1,48.356,8.4a12.528,12.528,0,0,1,8.292-4.191c.866,0,1.394.254,1.524.735-1.139,2.8-1.271,5-.4,6.544,1.3,2.262,4.469,2.736,6.776,3.079a14.079,14.079,0,0,1,1.928.368,1.4,1.4,0,0,0,.429.073,1.145,1.145,0,0,0,.837-.383c1.346-1.382,1.243-6.171,1.237-6.216l-2.5-7.96,5.562,4.5A19.528,19.528,0,0,1,77.74,8.415a19.411,19.411,0,0,1,3.29,3.414l.039.046c.544.686,1.29,1.624,2.528,3.065a33.641,33.641,0,0,1,2.7,3.708c1.18,1.817,1.96,3.018,3.362,3.018a3.108,3.108,0,0,0,.887-.139c7.285-4.619,5.032-10,5.008-10.052l.05-.009h.046c.11-.008.311-.023.563-.023a3.708,3.708,0,0,1,2.823,1.022,2.861,2.861,0,0,1,.39,2.478c1.166,4.9-1.1,6.658-3.5,8.517a10.262,10.262,0,0,0-3.833,4.426,10.91,10.91,0,0,0,0,8.755c.113-.106,11.9-10.756,11.8-17.818a4.964,4.964,0,0,0-1.809-3.879,4.128,4.128,0,0,1,3.295-2.364c2.046,0,3.623,2.331,3.639,2.357a16.047,16.047,0,0,1,0,13.52c-1.405,3.143-3.894,4.628-6.3,6.06-3.311,1.976-6.737,4.019-7.16,10.462-.887,13.641,3.065,24.025,10.573,27.788-5.021-15.866.352-37.709,10.839-44.089a21.518,21.518,0,0,0-1.016,4.807,70.357,70.357,0,0,0-6.7,31.367,51.711,51.711,0,0,0,6.415-7.713c2.923-4.261,6.477-10.832,6.813-17.939.363-7.578-1.854-14.5-3.8-20.6l-.012-.039c-1.671-5.207-3.112-9.7-2.711-13.621C116.288,1.665,117.364,0,119.145,0c2.18,0,4.971,2.557,6.856,4.947-1.514,5.672-1.2,11.681.783,14.959a4.4,4.4,0,0,0,2.686,2.2,1.533,1.533,0,0,0,.346.036c3.915,0,11.472-13.591,11.548-13.729V14.94c-.043.093-4.21,9.1-10.293,9.1a6.522,6.522,0,0,1-1.6-.2c-2.18,3.4-3.1,7.084-2.18,8.765a1.757,1.757,0,0,0,1.671.927,3.642,3.642,0,0,0,.511-.04c3.773-.581,11.289-7.358,15.016-11.959,2.392-2.949,2.606-3.5,2.928-4.328a13.816,13.816,0,0,1,1.114-2.261,18.621,18.621,0,0,0,1.555-3.7c.539-1.639.927-2.825,2.086-2.825.224,0,.359.046.414.139.1.186-.12.555-.432,1.06-.759,1.229-2.028,3.286.017,5.325a2.106,2.106,0,0,0,1.522.669c1.722,0,3.723-2.009,5.656-3.952,1.657-1.667,3.222-3.243,4.378-3.243a2.022,2.022,0,0,1,1.975.927c.564,1.124-.156,3.161-1.976,5.594-1.335,1.785-4.476,3.455-7.248,4.928-2.535,1.348-4.723,2.507-4.743,3.369a.718.718,0,0,0,.433.6,2.092,2.092,0,0,0,1,.179c2.061,0,6.483-1.176,10.758-2.314l.06-.015.032-.008c4.285-1.139,8.715-2.318,10.771-2.318.689,0,1.091.132,1.192.4.139.347-.236.943-1.11,1.767-2.451,2.31-6.98,3.428-11.359,4.513-5.284,1.31-10.748,2.662-12.308,6.108-.844,1.854-.53,4.166.964,7.058-3.753.844-8.013,3.741-12,8.164a37.932,37.932,0,0,0-8.043,13.442A41.346,41.346,0,0,0,115.5,74.3c-.758.955-1.474,1.854-2.205,2.682-5.848,12.052-3.235,21.322-1.136,28.777,1.423,5.059,2.649,9.429,1.136,13.568a15.892,15.892,0,0,1-6.193,1.249Zm40.923-96.623h0c-1,0-3.605,2.72-7.206,6.489-3.179,3.321-7.129,7.456-11.184,10.917a149.512,149.512,0,0,0-10.786,21.1,107.009,107.009,0,0,0,16.178-16.614c1.249-1.371,2.35-2.5,3.321-3.5,4.285-4.384,6.431-6.584,9.92-18.308a.372.372,0,0,0-.245-.081ZM73.7,13.054h-.009c-.056.578-1.522,14.261-7.407,18.867,8.659,3.331,22.309,11.613,22.438,11.694,0-.086-.449-10.284-4.238-18A37.552,37.552,0,0,0,73.7,13.057Zm43.267,15.628v-.011c.623-1.739,1.292-2.384,1.568-2.384a.132.132,0,0,1,.132.086c.093.244-.183,1.028-1.332,2.092l-.36.21Z" transform="translate(62.116 43.906)"/><path class="e" d="M11151.737-2223.364c12.57.877,23.238-1.119,12.1-11.693-1.646-1.565,18.431,1.785,27.667,11.693,4.481,1.115,21.231-8.762,13.479-15.973-4.252-2.629,1.2-6.357-7.074-10.111-1.82-.823-3.3,1.3-6.41,0-1.131-.473-2.294-.953-4.609-1.9-.065-.027,1.225-1.618,0-2.118-1.637-.662,1.534-3.84-1.354-4.953-2.119-.82-5.405,1.407-7.209,0s21.426.894,0-5.626c-1.781-.541,3.512-2.176,0-3.133-1.217-.332-2.366.643-4.919,0-1.513-.383,10.583-7.181,7.648-7.887-1.592-.381-4.594-2.746-7.648-3.335-1.342-.265-3.661,3.767-6.3,3.335-1.812-.3-.065-6.017-3.268-6.5-3.409-.514-8.458,3.636-13.585,3.167-1.464-.133-5.137,1.811-7.849,1.55-2.2-.208-5.3,3.779-8.762,3.372-3.521-.414-3.135.992-7.853,0-2.3-.48,3.575-3.919,0-4.922-1.207-.335,2.588-5.5,0-6.1-1.993-.472-4.076-4-7.887-4.246-1.855-.133-2.5,1.47-5.829,1.786-2.915.264-3.689-.569-8.077,0-1.247.16-2.2,1.867-4.96,2.459-2.293.479-5.694,4.954-7.849,2.933-2.726.8-6.742-.237-10.543-2.933-3.636,1.047-8.73-4.092-14.158-2.459-1.863.557-7.286-.952-10.345,0-3,.936-7.413,1.033-11.7,2.459-2.857.95-4.482,3-8.521,4.416-1.677.587-4.335-1.018-7.182,0-1.16.419-3.253,2.37-5.621,3.236-1.425.518-3.907-.969-6.5,0-.949.349-2.164,2.566-4.286,3.37-1.316.5-1.758,2.972-4.281,3.943-1.519.582-3.114-1.052-5.827,0-1.035.4-1.471,1.52-3.605,2.357-.837.326-1.349,2.336-3.372,3.133-1.771.7-3.963-1.179-6.942,0-.776.31-3.032-3.9-4.954-3.133-1.015.405-3.943-.881-6.063,0-.77.318-3.232-.83-5.16,0-1.322.568-.5,3.5-2.923,4.616-1.645.75-1.746-1.324-4.487,0-.6.29-2.529-5.483-4.279-4.616-1.912.942-6.035,1.425-9,3.133-1.41.814-1.634,2.6-4.043,4.145-1.266.814-4.9.257-7.174,1.818-1.28.878-2.49,2.77-4.719,4.484-.827.627,1.782,2.824,0,4.278-.725.587,1.719,2.668,0,4.045-.321.264,1.338,1.671,0,2.7-.99.767-3.179.14-5.391,1.55-.809.521-2.095-5.439-4.049-4.246-.783.484-3.819,1.21-5.627,2.7-.779.623-1.355,2.292-2.931,4.044v4.246s-11.654,2.6-6.4,4.18c1.76.083-3,7.007,0,7.179,1.684.092.241,6.328,3.271,6.5,1.465.085.461,3.021,3.133,3.168,1.487.08,2.479-3.3,5.192-3.168.872.043,1.378-2.318,3.365-2.224,1.618.074,1.241,2.1,4.049,2.224,1.682.074-.576,3.045,2.46,3.168,1,.043,2.167,1.5,4.28,1.589,1.369.053.683-3.257,3.369-3.166,1.1.037,2.134,1.508,4.483,1.589,1.4.047,4.123-1.658,6.733-1.589.545.015,1.492-1.629,3.182-1.589,1.076.028,1.461-2.29,3.807-2.224,1.29.035,3.718,2.151,6.3,2.224.875.025.986,1.527,3.137,1.589,2.105.057,6.116-.08,9.434,0,.279,0-1.544-3.84,0-3.809,1.382.032-2.571-9.061,0-9,2.438.06.729-4.635,4.48-4.481s8.288,4.137,13.478,4.481c2,.133,6.128-6.868,9.34-6.638,2.136.151,4.386-.292,7.749,0,.927.079-.707-4.446,1.446-4.246,2.664.247,5.354-4.514,9.339-4.044,1.724.2,2.647-.418,5.625,0,3.128.436,2.721.775,7.178,1.549,1.916.334,2.28-4.852,5.49-4.246,2.741.517,3.9,1.8,7.89,2.7,1.559.347-2.79,7.629,0,8.289,2.132.5,3.354,1.383,6.842,2.156,1.306.292,1.363-2.7,3.939-2.156,1.063.225,1.241-3.055,3.578-2.562,1.869.4-.344,1.853,2.833,2.562,1.425.316,5.032-.6,7.751,0,1.575.345,3.555-.634,6.407,0,2.646.589,6.524-1.709,10.545-.775,2.527.589,5.717-.227,9.534.775,2.22.58,4.372-1.792,7.853-.775,1.81.53,3.086,3.817,6.105,4.851,1.8.614,8.045-5.067,11.116-4.076,1.088.351,5.684-1.752,7.851-.775,1.194.521-4.618,5.9-2.593,7.417C11134.555-2221.007,11146.469-2221.774,11151.737-2223.364Z" transform="translate(-10909.729 2288.75)"/></g><g transform="translate(10388.228 -7546.075)"><path class="d" d="M128.4,144.552a34.643,34.643,0,0,1-9.2-1.492c-4.212-6.859-3.8-15.261-3.325-24.987.764-15.585,1.713-34.98-15.655-57.983C60.1,31.311,22.426,28.2,8.089,28.2A70.731,70.731,0,0,0,0,28.578H0v-.027a10.891,10.891,0,0,1,7-6.9,15.463,15.463,0,0,1,4.63-.6,44.211,44.211,0,0,1,5.324.4l.724.092.159.021a29.561,29.561,0,0,0,3.2.294,2.523,2.523,0,0,0,1.2-.205c.127-.074.182-.159.17-.257-.147-1.089-8.878-3.464-8.966-3.493.3-.284,1.541-1.186,4.73-1.186A30.8,30.8,0,0,1,25.84,17.9c9.8,2.607,27.029,10.346,27.764,10.674.355.229,8.75,5.595,15.083,5.595a10.076,10.076,0,0,0,1.048-.051c6.331-.671,9.809-8,9.955-8.308.406-1.747-4.1-3.233-9.326-4.952-5.823-1.916-12.425-4.09-13.291-7.1a4.1,4.1,0,0,1,.9-3.686,15.019,15.019,0,0,1,9.941-5.025c1.038,0,1.672.3,1.827.881-1.365,3.36-1.524,6-.476,7.845,1.557,2.712,5.358,3.281,8.124,3.692a16.879,16.879,0,0,1,2.312.441,1.683,1.683,0,0,0,.514.087,1.373,1.373,0,0,0,1-.459c1.613-1.656,1.49-7.4,1.483-7.452L79.7.541,86.371,5.93A23.41,23.41,0,0,1,93.2,10.088a23.271,23.271,0,0,1,3.944,4.093l.046.055c.652.822,1.546,1.946,3.031,3.674a40.333,40.333,0,0,1,3.233,4.446c1.415,2.178,2.35,3.619,4.031,3.619a3.726,3.726,0,0,0,1.064-.167c8.733-5.538,6.033-11.987,6-12.051l.06-.011h.055c.132-.01.373-.027.675-.027a4.446,4.446,0,0,1,3.385,1.226,3.43,3.43,0,0,1,.467,2.971c1.4,5.874-1.323,7.982-4.2,10.211a12.3,12.3,0,0,0-4.595,5.306,13.08,13.08,0,0,0,0,10.5c.135-.127,14.267-12.894,14.148-21.361a5.951,5.951,0,0,0-2.169-4.65,4.949,4.949,0,0,1,3.95-2.834c2.453,0,4.344,2.795,4.363,2.825a19.238,19.238,0,0,1,0,16.209c-1.684,3.768-4.668,5.548-7.552,7.265-3.969,2.369-8.077,4.819-8.583,12.543-1.064,16.354,3.674,28.8,12.675,33.313-6.019-19.021.422-45.207,12.994-52.856A25.8,25.8,0,0,0,139,40.146a84.346,84.346,0,0,0-8.032,37.6,61.993,61.993,0,0,0,7.691-9.247c3.5-5.108,7.765-12.986,8.168-21.506.435-9.085-2.223-17.377-4.561-24.7l-.014-.046c-2-6.243-3.731-11.631-3.25-16.329C139.411,2,140.7,0,142.836,0c2.613,0,5.959,3.066,8.219,5.93-1.815,6.8-1.438,14,.939,17.933a5.274,5.274,0,0,0,3.22,2.639,1.839,1.839,0,0,0,.415.043c4.693,0,13.753-16.293,13.845-16.458v7.824c-.051.111-5.047,10.908-12.339,10.908a7.819,7.819,0,0,1-1.918-.24c-2.613,4.074-3.714,8.493-2.613,10.507a2.106,2.106,0,0,0,2,1.111,4.365,4.365,0,0,0,.613-.048c4.523-.7,13.534-8.821,18-14.337,2.868-3.536,3.124-4.191,3.51-5.188a16.562,16.562,0,0,1,1.336-2.71,22.319,22.319,0,0,0,1.864-4.437c.646-1.965,1.111-3.386,2.5-3.386.268,0,.43.055.5.167.125.222-.144.665-.518,1.27-.91,1.473-2.431,3.939.021,6.384a2.524,2.524,0,0,0,1.824.8c2.064,0,4.463-2.408,6.781-4.737,1.986-2,3.863-3.888,5.249-3.888a2.424,2.424,0,0,1,2.368,1.112c.677,1.348-.188,3.79-2.369,6.707-1.6,2.14-5.366,4.142-8.689,5.908-3.039,1.616-5.662,3.006-5.686,4.039a.861.861,0,0,0,.519.719,2.509,2.509,0,0,0,1.2.214c2.47,0,7.772-1.41,12.9-2.774l.071-.017.038-.01c5.137-1.365,10.448-2.779,12.913-2.779.826,0,1.308.159,1.429.476.166.416-.283,1.13-1.331,2.118-2.939,2.769-8.367,4.11-13.617,5.411-6.335,1.57-12.885,3.191-14.756,7.322-1.012,2.223-.635,4.995,1.156,8.461-4.5,1.012-9.606,4.485-14.389,9.787A45.474,45.474,0,0,0,158.392,72.9a49.567,49.567,0,0,0-19.924,16.175c-.908,1.145-1.767,2.223-2.644,3.215-7.011,14.448-3.879,25.562-1.362,34.5,1.707,6.065,3.175,11.3,1.362,16.266a19.052,19.052,0,0,1-7.424,1.5ZM177.458,28.716h0c-1.2,0-4.322,3.261-8.639,7.78-3.811,3.982-8.547,8.939-13.408,13.087a179.239,179.239,0,0,0-12.93,25.294,128.287,128.287,0,0,0,19.4-19.918c1.5-1.644,2.817-3,3.982-4.191,5.137-5.255,7.71-7.893,11.892-21.948a.446.446,0,0,0-.294-.1ZM88.355,15.65h-.011c-.067.692-1.824,17.1-8.88,22.618,10.381,3.993,26.745,13.922,26.9,14.019,0-.1-.538-12.329-5.081-21.576A45.019,45.019,0,0,0,88.358,15.653Zm51.87,18.735v-.013c.746-2.085,1.549-2.858,1.88-2.858a.159.159,0,0,1,.159.1c.111.292-.219,1.233-1.6,2.508l-.432.252Z" transform="translate(74.467 52.636)"/><path class="e" d="M11199.856-2210.363c15.068,1.051,27.86-1.342,14.5-14.018-1.974-1.876,22.1,2.14,33.17,14.018,5.373,1.335,25.451-10.5,16.162-19.149-5.1-3.152,1.43-7.621-8.483-12.12-2.183-.987-3.955,1.554-7.687,0-1.353-.568-2.75-1.144-5.525-2.272-.077-.033,1.469-1.939,0-2.54-1.962-.794,1.84-4.6-1.622-5.938-2.54-.983-6.478,1.687-8.644,0s25.685,1.071,0-6.745c-2.134-.648,4.213-2.609,0-3.756-1.46-.4-2.838.771-5.9,0-1.812-.459,12.688-8.609,9.17-9.455-1.907-.457-5.509-3.293-9.17-4-1.607-.317-4.388,4.516-7.558,4-2.173-.354-.078-7.214-3.917-7.8-4.087-.616-10.138,4.358-16.285,3.8-1.755-.159-6.159,2.171-9.41,1.858-2.639-.251-6.35,4.53-10.5,4.042-4.221-.495-3.759,1.19-9.414,0-2.754-.574,4.287-4.7,0-5.9-1.451-.4,3.1-6.588,0-7.312-2.393-.565-4.887-4.794-9.457-5.09-2.223-.159-3,1.762-6.985,2.142-3.493.317-4.425-.682-9.686,0-1.5.193-2.631,2.238-5.945,2.948-2.749.575-6.827,5.94-9.408,3.517-3.269.953-8.085-.284-12.643-3.517-4.358,1.256-10.464-4.9-16.972-2.948-2.233.668-8.732-1.142-12.4,0-3.6,1.122-8.886,1.238-14.022,2.948-3.428,1.14-5.375,3.593-10.216,5.295-2.011.7-5.2-1.221-8.607,0-1.395.5-3.9,2.842-6.742,3.879-1.708.62-4.685-1.162-7.8,0-1.137.418-2.594,3.077-5.138,4.04-1.579.6-2.106,3.563-5.132,4.727-1.82.7-3.732-1.261-6.985,0-1.24.476-1.766,1.823-4.322,2.825-1,.391-1.617,2.8-4.041,3.756-2.129.843-4.755-1.415-8.323,0-.935.371-3.638-4.681-5.94-3.756-1.218.487-4.728-1.056-7.27,0-.921.381-3.874-.994-6.185,0-1.588.681-.6,4.2-3.506,5.535-1.97.9-2.091-1.587-5.379,0-.724.348-3.034-6.573-5.13-5.535-2.292,1.13-7.233,1.709-10.8,3.756-1.69.976-1.956,3.113-4.846,4.969-1.518.976-5.875.308-8.6,2.18-1.536,1.052-2.987,3.32-5.655,5.374-.992.753,2.136,3.387,0,5.13-.87.7,2.062,3.2,0,4.849-.388.317,1.6,2,0,3.232-1.188.92-3.812.167-6.467,1.858-.966.623-2.509-6.521-4.849-5.09-.943.58-4.58,1.45-6.749,3.232-.935.747-1.623,2.749-3.513,4.849v5.091s-13.972,3.112-7.677,5.01c2.109.1-3.6,8.4,0,8.607,2.019.111.291,7.586,3.921,7.8,1.758.1.551,3.622,3.757,3.8,1.783.1,2.972-3.955,6.225-3.8,1.045.052,1.65-2.779,4.036-2.666,1.938.089,1.485,2.517,4.851,2.666,2.018.089-.689,3.652,2.95,3.8,1.2.052,2.6,1.8,5.131,1.905,1.641.063.817-3.9,4.039-3.8,1.326.044,2.56,1.808,5.373,1.9,1.687.057,4.945-1.988,8.074-1.9.655.019,1.788-1.952,3.811-1.9,1.292.033,1.756-2.745,4.565-2.666,1.549.041,4.459,2.578,7.555,2.666,1.051.03,1.182,1.83,3.761,1.9,2.522.068,7.331-.1,11.308,0,.333,0-1.848-4.6,0-4.566,1.657.038-3.082-10.862,0-10.788,2.925.071.874-5.557,5.37-5.373s9.938,4.96,16.16,5.373c2.4.159,7.347-8.234,11.2-7.959,2.56.182,5.257-.349,9.29,0,1.112.1-.847-5.33,1.732-5.09,3.194.3,6.421-5.411,11.2-4.848,2.064.244,3.176-.5,6.743,0,3.751.522,3.259.929,8.606,1.857,2.294.4,2.732-5.817,6.579-5.09,3.288.619,4.674,2.161,9.461,3.232,1.869.416-3.344,9.147,0,9.938,2.555.6,4.021,1.658,8.2,2.584,1.566.35,1.637-3.242,4.726-2.584,1.271.269,1.489-3.663,4.287-3.071,2.243.477-.411,2.223,3.4,3.071,1.709.378,6.034-.715,9.293,0,1.889.414,4.264-.759,7.679,0,3.174.707,7.825-2.048,12.643-.929,3.031.706,6.854-.271,11.434.929,2.66.7,5.239-2.148,9.413-.929,2.167.635,3.7,4.575,7.317,5.816,2.153.735,9.645-6.075,13.327-4.887,1.306.421,6.813-2.1,9.414-.929,1.43.624-5.54,7.078-3.111,8.891C11179.259-2207.538,11193.539-2208.457,11199.856-2210.363Z" transform="translate(-10909.729 2288.75)"/></g><path class="d" d="M6604,15248.048v199.841H8524v-178.964l-7.314,17.52a62.21,62.21,0,0,0-13.069-17.52c-8.263-7.357-15.748-9.3-19.985-11.906-3.439-2.116,4.168,3.833,9.491,11.906,7.388,11.206,15.108,27.223,15.108,27.223s-17.491-24.742-19.219-24.742l6.416,10.742,5.881,12.006-16.141-18.145,7.954,18.145-16.414-22.748a86.657,86.657,0,0,1,6.923,16.608c2.354,8.686,1.537,18.683,1.537,18.683s-7.3-31.508-15.377-37.646a29.161,29.161,0,0,0-16.911-5.868,42.658,42.658,0,0,1,13.605,12.007c5.382,7.732,7.92,18.916,7.92,18.916s-5.114-11.354-10.5-16.534a23.5,23.5,0,0,0-11.029-6.178,32.68,32.68,0,0,1,6.687,11.279c2.115,6.53,1.771,14.846,1.771,14.846s-3.075-14.779-6.919-19.766a42.661,42.661,0,0,0-8.456-8.168l4.38,12.775-10.763-14.663s3.575,4.721,3.575,14.851-3.575,25.664-3.575,25.664-5.937-14.989-14.488-25.664a78,78,0,0,0-19.719-17.039s8.372,12.52,13.3,25.054a114.4,114.4,0,0,1,6.418,25.091s-1.489-10.763-6.418-17.035-13.3-12.045-13.3-12.045,4.414,8.308,5.884,14.577a20.479,20.479,0,0,1,0,10.51s-2.231-18.228-5.884-21.491-8.725-2.53-8.725-2.53,5.708,1.45,6.921,5.6-2.077,11.012-2.077,11.012l-17.142-28.434,6.379,15.882-14.835-13.042a103.658,103.658,0,0,1,12.532,16.608,100.741,100.741,0,0,1,8.222,18.913s-10.692-19.589-20.754-27.894-23.6-11.012-23.6-11.012,11.8,9.786,18.219,18.455,5.38,29.383,5.38,29.383-12.338-26.168-19.487-33.3-19.449-15.076-19.449-15.076,19.447,23.787,22.524,33.76-3.075,21.755-3.075,21.755-7.119-12.227-11.8-17.148-5.61-13.814-5.61-13.814-3.444,6.591-2.04,13.814,7.65,15.076,7.65,15.076-8.179-6.179-12.531-12.126-4.882-16.654-4.882-16.654-4.726,5.247-2.8,14.58,10.491,22.75,10.491,22.75a154.366,154.366,0,0,0-10.491-17.763c-5.188-7.156-10.264-20.835-10.264-20.835s3.575,13.667,2.8,25.59a64.454,64.454,0,0,1-5.88,22.094s-7.256-12.889-10.264-22.094-1.768-14.736-1.768-14.736a26.943,26.943,0,0,0-2.841,13.162c.44,7.166,4.608,15.5,4.608,15.5s-13.9-5.345-22.29-18.679a95.845,95.845,0,0,1-11.263-24.664,142.649,142.649,0,0,0,5.65,24.664,112.449,112.449,0,0,0,10.221,21.216s-9.4-8.361-14.334-17a43.883,43.883,0,0,1-5.38-17.53s-1.923,9.339,0,17.53,7.688,15.23,7.688,15.23a169.644,169.644,0,0,1-15.493-11.667c-7.04-6.108-12.682-48.7-12.682-48.7a116.381,116.381,0,0,0,2.189,33.646c3.913,17.165,13.453,35.024,13.453,35.024s-8.707-7.364-13.453-14.079a31.545,31.545,0,0,1-5.533-12.777s-3.191,5.486-3.191,11.242,3.191,11.776,3.191,11.776-9.206-17.367-17.914-23.916-16.912-14.262-16.912-14.262,13.093,18.045,16.912,31.524c2.73,9.624-3.131,14.376-5,20.071-2.014,6.148-6.968-9.084-11.914-18.144-5.411-9.916-10.736-14.436-10.736-14.436s14.814,28.832,8.263,29.353c-4.59.367-7.794-18.235-11.613-20.433-1.3-.749-.581,4.541,0,10.966.354,3.916.729,9.659,0,9.467-1.815-.487-6.72-4.386-9-9.467-2.55-5.675-2.317-12.7-2.317-12.7a21.957,21.957,0,0,0-3.958,11.777c0,6.491,3.958,14.192,3.958,14.192s-9.39-16.239-17.259-20.647-14.22-18.956-14.22-18.956,4.41,11.364,3.958,22.366-5.766,21.635-5.766,21.635-2.334-11.268-7.071-19.335A44.736,44.736,0,0,0,8127.1,15329s4.994,12.036,4.994,20.1-7.744,18.059-7.744,18.059L8113,15343.6s2.692,8.718,0,15.821-9.327,13.69-10.769,12.6c-3.314-2.5,3.7-27.032,0-29.6-11.628-8.065-21.641-22.405-21.641-22.405s5.865,15.326,6.759,27.377a45.891,45.891,0,0,1-3.184,20.843s-3.312-16.188-9.516-28.246a74.492,74.492,0,0,0-15.3-19.974s12.842,32.236,10.3,41.246c-1.839,6.515-18.09-11.21-20.079-12.9-12.422-10.579-15.1-30.42-15.1-30.42a42.88,42.88,0,0,0,0,23.669c3.776,12.307,15.1,25.552,15.1,25.552s-8.187-5.339-15.1-8.984-12.57-14.581-12.57-14.581,8.064,17.892,4.729,27.739-18.063.685-18.063.685-5.036-21.283-11.915-33.874-15.606-16.5-15.606-16.5,1.017,15.146,4.342,27.736a108.24,108.24,0,0,0,8.957,22.636,33.714,33.714,0,0,1-15.375-15.73c-5.438-11.45-6.38-30.077-6.38-30.077s-2.115,16.9,0,30.077a62.432,62.432,0,0,0,8.457,22.636s-10.9-14.287-16.412-22.219-5.651-20.488-5.651-20.488-3.717,10.76-2.306,20.488,7.957,18.417,7.957,18.417-4.661-8.64-9.725-13.244-10.532-16.151-10.532-16.151,4.439,10.723,5.919,17.874,0,10.742,0,10.742a30.481,30.481,0,0,1-5.919-8.553c-2.372-5.18-3.574-19.149-3.574-19.149a79.069,79.069,0,0,0-2.307,18.188,110.744,110.744,0,0,0,2.307,20.174s-7.958-9.318-9.383-19.794-8.8-18.567-8.8-18.567-.536,11.893,4.295,21.584a40.211,40.211,0,0,1,3.894,19.58s-4.345-10.637-8.188-14.789-5.649-14.752-5.649-14.752-2.034,8.687,0,16.813a37.244,37.244,0,0,1,0,16.178s-1.806-26.061-7.522-34.21-6.083-14.755-6.083-14.755a33.22,33.22,0,0,0,1.013,17.126c3.05,9.338,1.33,22.5,1.33,22.5a171.429,171.429,0,0,0-6.417-22.521c-4.8-13.808-12.8-32.721-12.8-32.721s3.842,23.842,3.842,38.362-3.842,19.72-3.842,19.72-1.3-15.383-4-25.361-6.806-14.534-6.806-14.534a66.243,66.243,0,0,0-2.42,17.759c0,9.974,2.42,22.137,2.42,22.137s-8.57-22.29-17.521-30.121-7.191-27.961-7.191-27.961-3.077,25.283,2.305,32.721,4.5,28.393,4.5,28.393-6.8-7.137-15.875-18.164-6.16-18.4-6.16-18.4-4.741,7.645,0,18.4,0,21.128,0,21.128-9.867-21.113-9.545-41.287-7.509-32.5-7.509-32.5,2.383,16.194,1.807,30.421a125.484,125.484,0,0,1-4.113,26.481l-5.112-37.223s1.22,17.071,0,28.391-4.88,16.879-4.88,16.879-3.5.522-6.382-8.047-5.148-26.211-5.148-26.211.279,15.443-2.538,26.211a40.865,40.865,0,0,1-8.724,16.883s-10.379-2.312-6.805-16.883-6.8-33.885-6.8-33.885,3.067,13.859,0,25.053-12.263,19.72-12.263,19.72l-9.493,9.17s4.229-19.147,3.459-37.176-6.534-34.949-6.534-34.949,1.854,15.028,0,27.5a73.107,73.107,0,0,1-7.418,22.411l-4.882-26.854a98.286,98.286,0,0,0-4.342,17.759,73.283,73.283,0,0,0,0,16.727,41.377,41.377,0,0,1-7.456-16.727c-1.865-9.839,0-22.636,0-22.636l-11.262,53.942s-3.729-21.6,2.191-39.248-2.191-30.038-2.191-30.038,4.765,12.658-1.922,23.018-8.842,24.058-8.842,24.058l-4.111-45.041-7.187,47.194-2.036-39.753-5.613,33.721s-5.247-6.2-6.15-13.158,2.537-14.694,2.537-14.694-7.292,4.211-9.724,14.694,0,27.237,0,27.237-10.194-15.663-12.568-30.692,3.074-29.422,3.074-29.422a69.588,69.588,0,0,0-12.3,25.856c-3.844,15.738-3.075,37.1-3.075,37.1s-5.361-17.8-7.149-33.533a135.833,135.833,0,0,1,0-29.422,62.924,62.924,0,0,0-6.919,20.33c-1.73,11.512,0,25.705,0,25.705s-7.417-3.387-10.531-11.086-1.921-19.723-1.921-19.723-4.988,10.512-5.5,19.723a37.893,37.893,0,0,0,3.459,17.118l-17.45-21.225a87.053,87.053,0,0,1,1.692,21.225,77.361,77.361,0,0,1-4.5,20.058s-5.766-10.76-7.688-20.058a42.931,42.931,0,0,1,0-17.118l-7.687,17.118s.189-16.7-1.922-29.008a69.26,69.26,0,0,0-6.521-20.221,114.39,114.39,0,0,1,1.909,20.221,174.119,174.119,0,0,1-1.909,22.976l-7.93-47.915v44.232l-2.344,17.762-4.076-33.6-10.761,40.625v-48.954a99,99,0,0,0-8.457,24.17c-3.074,14.29-3.845,32.994-3.845,32.994l-3.342-36.064-13.3,32.843s3.845-28.294,8.456-45.613,9.994-23.673,9.994-23.673a107.8,107.8,0,0,0-16.68,23.516c-6.477,12.975-9.225,28.389-9.225,28.389s.27-21.435,2.575-34.413,6.65-17.491,6.65-17.491-10.494,2.15-11.532,17.491-10.492,34.413-10.492,34.413,4.237-15.833,5.649-28.231a87.748,87.748,0,0,0,0-21.371,116.838,116.838,0,0,1-7.189,21.214,93.6,93.6,0,0,1-11.261,17.647l6.65-41.163-16.143,54.973s3.834-18.289,5.113-31.457,0-21.214,0-21.214-1.192,9.848-3.307,15.189-5.15,6.182-5.15,6.182v-23.673s-1.519,18.367-4.843,32.11a98.061,98.061,0,0,1-8.456,22.862s2.478-19.034,3.306-35.407,0-30.077,0-30.077a175.172,175.172,0,0,1-3.306,17.8c-1.787,6.46-3.845,8.053-3.845,8.053l-4.65-22.249a168.063,168.063,0,0,1,0,24.4,159.8,159.8,0,0,1-4.075,23.672s1.289-12.393,0-21.6a41.261,41.261,0,0,0-5.149-15.232,54.273,54.273,0,0,1,0,15.232,86.713,86.713,0,0,1-4.842,16.878l-2.845-32.11s-.373-10.163-4.343-17.262-11.531-11.129-11.531-11.129,7.12,9.4,8.725,28.391-2.306,47.571-2.306,47.571-6.542-20.254-8.725-34.413,0-22.21,0-22.21-3.191,13.006-5.111,22.21-2.576,14.619-2.576,14.619l-3.075,11.086s1.988-18.831,0-30.809-7.955-17.106-7.955-17.106,1.852,6.576,0,20.063-7.408,33.885-7.408,33.885.213-23.353-1.548-36.841-5.5-17.106-5.5-17.106,1.854,2.953,0,17.106-7.417,39.517-7.417,39.517,1.728-20.955,0-36.561-6.921-25.855-6.921-25.855,2.059,9.474,0,22.9-8.223,30.809-8.223,30.809-.807-18.831-2.923-30.809-5.532-17.106-5.532-17.106,1.662,12.073,0,20.063a21.3,21.3,0,0,1-6.65,11.893,52.947,52.947,0,0,0,0-14.849,45.159,45.159,0,0,0-4.88-13.271s2.045,15.691,0,28.887a77.636,77.636,0,0,1-8.189,23.9s-4.208-18.2-3.189-34.413a100.93,100.93,0,0,1,7.265-30.42s-10.552,9.734-14.067,20.22,0,21.712,0,21.712.116,7.469-2.192,10.511-7.033,1.649-7.033,1.649a35.079,35.079,0,0,1-6.919-13.927c-1.73-7.957,3.729-11.709,3.729-22.9a75.494,75.494,0,0,0-3.729-21.865s-7.687,13.628-11.146,24.823a57.448,57.448,0,0,0-2.689,19.945s.259-16.54-2.692-26.965-9.109-14.737-9.109-14.737,2.171,12.259,0,21.757a38.18,38.18,0,0,1-8.686,16.225s.424-13.752-1.691-23.244-6.765-14.737-6.765-14.737a128.85,128.85,0,0,1,0,19.723c-.837,10.865-3.345,23.746-3.345,23.746s-.643-14-1.921-23.746a84.212,84.212,0,0,0-3.19-15.234s1.6,3.634,0,12.012-6.418,21.481-6.418,21.481,1.278-9.889,0-18.259a50.617,50.617,0,0,0-5.113-15.234s.961,8.9,0,15.234a23.617,23.617,0,0,1-3.843,10.087l-3.344-15.072s-5.3,3.026-9.339,12.236-6.8,24.593-6.8,24.593a100.177,100.177,0,0,0,1.651-25.707c-1.085-12.892-6-25.859-6-25.859l-8.724,26.974s1.922-17.314,0-32.073a101.328,101.328,0,0,0-7.687-26.97s3.719,14.376,2.69,26.97a67.572,67.572,0,0,1-6.8,23.4,111.372,111.372,0,0,0,0-19.569,189.463,189.463,0,0,0-3.844-22.632s.086,21.791-2.923,38.636a112.632,112.632,0,0,1-9.107,28.731s-5.91-16.1-6.8-26.969,3.228-16.5,3.228-16.5a67.3,67.3,0,0,0-6.8,14.737,54.3,54.3,0,0,0-1.922,15.072s.646-12.428,0-24.705-2.573-24.4-2.573-24.4l-8.956,34.029a93.405,93.405,0,0,0,0-21.908,115.311,115.311,0,0,0-5.882-22.6s-7.782,16.414-9.646,31.307a76.384,76.384,0,0,0,2.19,28.272s-7.668-1.025-10.223-11.507,0-30.421,0-30.421a80.131,80.131,0,0,0-7.072,26.855c-1.027,14.668,2.959,31.826,2.959,31.826s-7.3-13.169-8.84-24.807a46.765,46.765,0,0,1,2.69-21.757,30.427,30.427,0,0,0-9.877,16.5c-2.469,10.865,0,26.969,0,26.969s-10.378-.834-13.837-9.208,0-24.284,0-24.284a53.369,53.369,0,0,1,0,18.186c-1.787,9.146-7.149,18.4-7.149,18.4a127.7,127.7,0,0,1,0-22.776c.821-8.765,4.078-18.324,3.306-26.854-1.73-19.086-10.225-26.7-10.225-26.7a87.08,87.08,0,0,0-5.381,26.7c-.45,14.479,3.574,31.229,3.574,31.229s-6.139-13.6-8.185-23.674,0-16.606,0-16.606-6.919,7.73-9.225,17.223,0,20.755,0,20.755a49.883,49.883,0,0,1-10.377-20.755c-3.209-13.109-2.459-31.689-2.459-31.689a120.163,120.163,0,0,0-7.8,27.853c-2.689,16.62-2.959,38.633-2.959,38.633l-3.573-39.9s.316,9.456-1.923,16.5a30.76,30.76,0,0,1-7.034,11.662s2.682-16.411,1.653-29.429a68.659,68.659,0,0,0-5.765-22.632l-9.224,53.708s1.344-18.8,0-31.076-5.381-18.025-5.381-18.025-4.084,4.438-4.728,14.192,2.153,24.822,2.153,24.822-3.912-15.8-8.071-24.822-8.571-11.279-8.571-11.279a54.039,54.039,0,0,1,0,25.359c-3.334,14.071-13.336,30.92-13.336,30.92s2.689-26.587,0-45-10.763-28.659-10.763-28.659,6.515,10.243,3.729,28.659-14.875,45-14.875,45-6.534-24.543-7.686-41.167,3.073-25.318,3.073-25.318-5.937,13.333-7.917,25.318a73.127,73.127,0,0,0,0,22.637,67.041,67.041,0,0,1-13.606-22.637c-4.871-13.78-5.88-32.492-5.88-32.492a332.923,332.923,0,0,0,0,35.026,175.245,175.245,0,0,0,4.342,28.542l-2.538,15.576s-8.474-31.946-11.3-50.485,0-23.671,0-23.671-3.458,9.023-4.612,23.671,0,34.909,0,34.909a184.7,184.7,0,0,0-2.038-26.854,142.252,142.252,0,0,0-6.418-24.058s2.575,18.8,1.807,34.529a121.471,121.471,0,0,1-4.882,28.391,279.919,279.919,0,0,0-2.806-30.191,234.58,234.58,0,0,0-6.418-28.006s2.307,22.308,1.538,37.749-4.612,24.016-4.612,24.016-7.12-7.141-7.956-15.576,4.613-18.183,4.613-18.183-8.073,3.845-10.765,11.39,0,18.8,0,18.8-8.33-9.62-11.108-18.8a33.548,33.548,0,0,1,0-17.912l-8.453,19.99s2.756-8.733,0-23.827-11.032-36.549-11.032-36.549a190.56,190.56,0,0,1,2.8,36.549c-.517,19.275-4.881,40.551-4.881,40.551s-1.074-17.109-3.574-32.838-6.418-30.082-6.418-30.082,1.529,8.848,0,22.369-6.113,31.727-6.113,31.727.586-11.845,0-21.367a105.78,105.78,0,0,0-2.343-16.727,57.147,57.147,0,0,1,0,14.08,44.378,44.378,0,0,1-4.076,12.39s-7.955-12.757-8.723-22.637,5.648-16.876,5.648-16.876-7,2.231-12.568,13.043-9.723,30.194-9.723,30.194,1.863-16.729,0-30.194a76.2,76.2,0,0,0-7.458-23.671s-.817,12.9-4.076,23.671a83.382,83.382,0,0,1-8.955,19.411s-7.486-10.013-8.456-19.411,4.575-18.186,4.575-18.186-5.746,3.214-9.455,11.281-5.382,20.984-5.382,20.984a96.045,96.045,0,0,0,0-17.687,56.672,56.672,0,0,0-3.844-14.579,67.828,67.828,0,0,1-3.073,11.281,139.909,139.909,0,0,1-5.921,13.271,32.944,32.944,0,0,1,1.577-19.41c4.112-10.74,4.345-25.857,4.345-25.857s-3.912,10.992-8.457,20.715-9.725,18.186-9.725,18.186l-10.263,19.411s3.583-23.018,6.15-37.6,4.113-20.715,4.113-20.715a92.287,92.287,0,0,1-6.957,17.415,244.212,244.212,0,0,1-13.031,21.485,111.22,111.22,0,0,0,2.038-18.186,47.977,47.977,0,0,0-2.038-14.041s.414,4.412-3.88,10.741-13.3,14.581-13.3,14.581,4.236-14.833,5.648-23.277,0-10.484,0-10.484a92.817,92.817,0,0,0-5.648,10.484c-3.277,6.908-7.456,17.139-7.456,17.139l3.112-19.184a54.561,54.561,0,0,0-12.567,14.041c-5.641,9.017-9.995,22.019-9.995,22.019s1.027-22.182,3.076-36.06,5.111-19.453,5.111-19.453-4.218,2.208-8.187,9.21-7.687,18.8-7.687,18.8a161.819,161.819,0,0,0,4.114-24.437,191.955,191.955,0,0,0,0-26.088s-2.433,12.169-6.15,24.322-8.726,24.283-8.726,24.283a117.621,117.621,0,0,0,0-48.605s.365,20.9-3.344,33.529-7.149,17-7.149,17a30.037,30.037,0,0,1-3.075-12.393c0-6.551,3.075-13.81,3.075-13.81s-7.244,6.711-11.03,13.81a38.233,38.233,0,0,0-4.113,14.578Z" transform="translate(3123.001 -22784.807)"/></g></svg>