<svg xmlns="http://www.w3.org/2000/svg" width="1280" height="640" viewBox="0 0 1280 640"><defs><style>.a{fill:#f0e28d;}.b,.e{fill:none;}.b{stroke:#bb5a19;stroke-width:5px;}.c{fill:#bb5a19;}.d{stroke:none;}</style></defs><g transform="translate(12135 -1398)"><rect class="a" width="1280" height="640" transform="translate(-12135 1398)"/><g class="b" transform="translate(-12046 1487)"><rect class="d" width="1102" height="462" rx="34"/><rect class="e" x="2.5" y="2.5" width="1097" height="457" rx="31.5"/></g><g transform="translate(38 0)"><path class="c" d="M1664.656,311.535V296.527a1.112,1.112,0,1,1,2.223,0v.286a6.115,6.115,0,1,1,0,9.435v5.288a1.112,1.112,0,1,1-2.223,0Zm2.223-10.005a3.891,3.891,0,1,0,3.891-3.891A3.891,3.891,0,0,0,1666.879,301.53Zm210.99,5.533a7.015,7.015,0,0,1-3.4.72c-5.536,0-5.568-3.866-5.568-5,0-.022,0-.042,0-.062v-5.636a1.112,1.112,0,0,1,2.224,0v5.7c0,1.105.014,2.918,3.343,2.918s3.327-1.824,3.327-2.918v-5.7a1.112,1.112,0,0,1,2.223,0v9.589a1.111,1.111,0,0,1-2.152.391Zm-289.318-2.842h.028a1.11,1.11,0,0,1,1.084-.863h.258a1.111,1.111,0,0,1,1.084.863h.028a.339.339,0,0,0-.015.067,1.119,1.119,0,0,1,.015.182v.057c.093.347.555.867,2.5.867,3.155,0,2.521-1.727,2.521-1.727,0-1.691-7.5-.481-7.5-4.423,0,0-.557-3.871,4.983-3.871s4.983,3.454,4.983,3.454h-.028a1.112,1.112,0,0,1-1.084.863h-.258a1.112,1.112,0,0,1-1.084-.863h-.028a.472.472,0,0,0,.008-.112c0-.031-.006-.063-.007-.1-.052-.37-.418-1.1-2.5-1.1-2.92,0-2.521,1.727-2.521,1.727,0,1.69,7.5.548,7.5,4.423,0,0,.611,4.009-4.983,4.009S1588.55,304.221,1588.55,304.221Zm133.846,3.448a6.114,6.114,0,1,1,5.9-7.786,1.1,1.1,0,0,1,.067.257v0a1.119,1.119,0,0,1-1.082,1.274h-8.756c0,.047,0,.093,0,.139a3.9,3.9,0,0,0,3.891,3.891,3.937,3.937,0,0,0,3.341-1.927l.005,0a1.045,1.045,0,0,1,.092-.157l.1-.14a1.112,1.112,0,0,1,1.822,1.276l-.1.139c-.01.016-.022.031-.032.045a6.329,6.329,0,0,1-2.9,2.5,5.9,5.9,0,0,1-2.327.481Zm-2.345-9.207a3.9,3.9,0,0,0-.731.731h6.18a3.889,3.889,0,0,0-5.449-.731Zm-90.537,9.207a6.114,6.114,0,1,1,5.9-7.786,1.1,1.1,0,0,1,.067.257v0a1.126,1.126,0,0,1-1.083,1.274h-8.756c0,.047,0,.093,0,.139a3.9,3.9,0,0,0,3.891,3.891,3.934,3.934,0,0,0,3.34-1.927l.005,0a1.142,1.142,0,0,1,.093-.157l.1-.14a1.112,1.112,0,1,1,1.821,1.276l-.1.139c-.011.016-.022.031-.033.045a6.329,6.329,0,0,1-2.9,2.5,5.891,5.891,0,0,1-2.326.481Zm-2.345-9.207a3.849,3.849,0,0,0-.731.731h6.18a3.889,3.889,0,0,0-5.449-.731Zm-191.652,9.207a6.113,6.113,0,1,1,5.9-7.786,1.193,1.193,0,0,1,.067.257v0a1.253,1.253,0,0,1,.01.154,1.106,1.106,0,0,1-1.093,1.12h-8.756c0,.047,0,.093,0,.139a3.9,3.9,0,0,0,3.892,3.891,3.936,3.936,0,0,0,3.34-1.927l.005,0a1.136,1.136,0,0,1,.092-.157l.1-.14a1.112,1.112,0,0,1,1.822,1.276l-.1.139c-.011.016-.022.031-.033.045a6.329,6.329,0,0,1-2.9,2.5,5.894,5.894,0,0,1-2.326.481Zm-2.345-9.207a3.849,3.849,0,0,0-.731.731h6.18a3.889,3.889,0,0,0-5.45-.731Zm-13.552,9.207a6.114,6.114,0,1,1,5.9-7.786,1.1,1.1,0,0,1,.067.257v0a1.119,1.119,0,0,1-1.082,1.274h-8.756c0,.047,0,.093,0,.139a3.9,3.9,0,0,0,3.891,3.891,3.937,3.937,0,0,0,3.341-1.927l.005,0a1.035,1.035,0,0,1,.092-.157l.1-.14a1.112,1.112,0,0,1,1.822,1.276l-.1.139c-.01.016-.022.031-.032.045a6.329,6.329,0,0,1-2.9,2.5,5.9,5.9,0,0,1-2.328.481Zm-2.345-9.207a3.9,3.9,0,0,0-.731.731h6.18a3.889,3.889,0,0,0-5.45-.731ZM1365,307.669a6.114,6.114,0,1,1,5.9-7.786,1.1,1.1,0,0,1,.067.257v0a1.12,1.12,0,0,1-1.082,1.274h-8.756c0,.047,0,.093,0,.139a3.9,3.9,0,0,0,3.891,3.891,3.937,3.937,0,0,0,3.341-1.927l.005,0a1.056,1.056,0,0,1,.092-.157l.1-.14a1.112,1.112,0,0,1,1.822,1.276l-.1.139c-.01.016-.021.031-.032.045a6.329,6.329,0,0,1-2.9,2.5,5.9,5.9,0,0,1-2.327.481Zm-2.345-9.207a3.9,3.9,0,0,0-.731.731h6.18a3.889,3.889,0,0,0-5.449-.731Zm-13.551,9.207a6.114,6.114,0,1,1,5.9-7.786,1.1,1.1,0,0,1,.067.257v0a1.126,1.126,0,0,1-1.083,1.274h-8.756c0,.047,0,.093,0,.139a3.9,3.9,0,0,0,3.891,3.891,3.935,3.935,0,0,0,3.34-1.927l.005,0a1.13,1.13,0,0,1,.093-.157l.1-.14a1.112,1.112,0,1,1,1.821,1.276l-.1.139c-.011.016-.022.031-.033.045a6.329,6.329,0,0,1-2.9,2.5,5.891,5.891,0,0,1-2.327.481Zm-2.345-9.207a3.845,3.845,0,0,0-.731.731h6.18a3.889,3.889,0,0,0-5.45-.731Zm541.9,8.7a6.071,6.071,0,0,1-1.538-.94,1.112,1.112,0,0,1-2.2-.248V291.524a1.112,1.112,0,1,1,2.223,0v5.288a6.113,6.113,0,1,1,1.511,10.351Zm-1.511-5.634a3.891,3.891,0,1,0,3.892-3.891A3.891,3.891,0,0,0,1887.148,301.53Zm-117.281,6.115a6.115,6.115,0,1,1,.006,0Zm-3.892-6.115a3.891,3.891,0,1,0,3.892-3.891A3.891,3.891,0,0,0,1765.976,301.53Zm-74.331,5.634a6.116,6.116,0,1,1,6.372-10.266,1.112,1.112,0,0,1,2.122.464v8.616a1.111,1.111,0,0,1-2.2.248,6.123,6.123,0,0,1-6.3.94Zm-1.511-5.634a3.891,3.891,0,1,0,3.892-3.891A3.891,3.891,0,0,0,1690.133,301.53ZM1508.4,307.644a6.12,6.12,0,1,1,.006,0Zm-3.891-6.115a3.891,3.891,0,1,0,3.891-3.891A3.891,3.891,0,0,0,1504.5,301.53Zm-32.271,6.115a6.12,6.12,0,1,1,.006,0Zm-3.891-6.115a3.891,3.891,0,1,0,3.891-3.891A3.891,3.891,0,0,0,1468.343,301.53Zm349.956,5.13h0a7.716,7.716,0,1,1,7.807-13.145.964.964,0,0,1,.112.09l0,0a1.04,1.04,0,0,1,.053,1.368,1.1,1.1,0,0,1-1.522.3l-.118-.079h0l-.018-.013-.157-.106a1.23,1.23,0,0,1-.108-.084,5.487,5.487,0,1,0-.065,9.176V303.1h-1.806a1.112,1.112,0,0,1,0-2.224h2.919a1.112,1.112,0,0,1,1.111,1.112v3.892a1.112,1.112,0,0,1-1.984.689c-.07.033-.142.065-.213.094a7.749,7.749,0,0,1-6.011,0Zm25.571.568c-3.567,0-3.322-2.111-3.322-5.42v-3.4h-2.223a1.112,1.112,0,0,1,0-2.224h2.223v-4.933a1.112,1.112,0,0,1,2.224,0v4.933h2.223a1.112,1.112,0,0,1,0,2.224h-2.223v4.238a1.115,1.115,0,0,1-.007.123c-.013,1.553.031,2.239,1.119,2.239h1.111a1.112,1.112,0,0,1,0,2.224Zm-12.767-1.112v-9.032a1.111,1.111,0,1,1,2.223,0v9.032a1.111,1.111,0,1,1-2.223,0Zm-32.97,0v-5.7c0-1.105-.014-2.919-3.343-2.919-3.113,0-3.314,1.6-3.327,2.7,0,.082,0,.156,0,.221,0,.021,0,.041,0,.061v5.636a1.112,1.112,0,1,1-2.223,0v-5.7c0-1.105-.014-2.919-3.343-2.919-3.307,0-3.328,1.8-3.328,2.9v5.719a1.112,1.112,0,1,1-2.223,0v-9.589a1.112,1.112,0,0,1,2.153-.391,7.014,7.014,0,0,1,3.4-.721c2.3,0,3.656.671,4.447,1.535.787-.865,2.137-1.535,4.447-1.535,5.535,0,5.568,3.867,5.568,5,0,.021,0,.041,0,.061v5.636a1.112,1.112,0,1,1-2.223,0Zm-44.709,0v-9.032a1.111,1.111,0,0,1,2.1-.5,5.052,5.052,0,0,1,3.443-1.164h1.126a1.112,1.112,0,0,1,0,2.224h-1.112c-3.495,0-3.334,2.771-3.334,5,0,.015,0,.031,0,.046v3.428a1.112,1.112,0,1,1-2.223,0Zm-9.37,0V298.4h-2.224a1.112,1.112,0,0,1,0-2.224h2.25c.148-2.992,1.042-6.044,5.518-6.044h1.126a1.112,1.112,0,0,1,0,2.223h-1.112c-2.894,0-3.282,1.9-3.33,3.821h2.219a1.112,1.112,0,0,1,0,2.224h-2.224v7.712a1.112,1.112,0,1,1-2.223,0Zm-33.387,1.112c-3.566,0-3.321-2.111-3.321-5.42v-3.4h-2.223a1.112,1.112,0,1,1,0-2.224h2.223v-4.933a1.111,1.111,0,1,1,2.223,0v4.933h2.224a1.112,1.112,0,0,1,0,2.224h-2.224v4.238a1.116,1.116,0,0,1-.006.123c-.013,1.553.031,2.239,1.119,2.239h1.112a1.112,1.112,0,0,1,0,2.224Zm-29.378-1.112V291.524a1.112,1.112,0,1,1,2.223,0v14.591a1.112,1.112,0,1,1-2.223,0Zm-23.646,0v-5.7c0-1.105-.014-2.919-3.343-2.919-3.113,0-3.314,1.6-3.327,2.7,0,.082,0,.156,0,.221,0,.021,0,.041,0,.061v5.636a1.111,1.111,0,1,1-2.223,0v-5.7c0-1.105-.014-2.919-3.343-2.919-3.307,0-3.328,1.8-3.328,2.9v5.719a1.111,1.111,0,1,1-2.223,0v-9.589a1.112,1.112,0,0,1,2.153-.391,7.014,7.014,0,0,1,3.4-.721c2.3,0,3.656.671,4.447,1.535.788-.865,2.137-1.535,4.447-1.535,5.535,0,5.568,3.867,5.568,5,0,.021,0,.041,0,.061v5.636a1.112,1.112,0,1,1-2.223,0Zm-39.859,1.112c-3.566,0-3.321-2.111-3.321-5.42v-3.4h-2.224a1.112,1.112,0,0,1,0-2.224h2.224v-4.933a1.112,1.112,0,1,1,2.223,0v4.933h2.224a1.112,1.112,0,0,1,0,2.224h-2.224v4.238a1.116,1.116,0,0,1-.006.123c-.014,1.553.031,2.239,1.118,2.239h1.112a1.112,1.112,0,0,1,0,2.224Zm-36.035-1.112v-9.032a1.111,1.111,0,1,1,2.223,0v9.032a1.111,1.111,0,1,1-2.223,0Zm-7,0v-5.7c0-1.105-.013-2.919-3.343-2.919-3.307,0-3.327,1.8-3.327,2.9v5.719a1.112,1.112,0,1,1-2.224,0V291.524a1.112,1.112,0,0,1,2.224,0V296.1a7.1,7.1,0,0,1,3.327-.683c5.536,0,5.568,3.867,5.568,5,0,.021,0,.041,0,.061v5.636a1.112,1.112,0,1,1-2.224,0Zm-15.362,1.112c-3.566,0-3.321-2.111-3.321-5.42v-3.4h-2.224a1.112,1.112,0,0,1,0-2.224h2.224v-4.933a1.112,1.112,0,1,1,2.223,0v4.933h2.224a1.112,1.112,0,0,1,0,2.224h-2.224v4.238a1.116,1.116,0,0,1-.006.123c-.014,1.553.031,2.239,1.118,2.239h1.112a1.112,1.112,0,0,1,0,2.224Zm-40.53-1.112v-9.032a1.112,1.112,0,0,1,2.1-.5,5.05,5.05,0,0,1,3.443-1.164h1.125a1.112,1.112,0,0,1,0,2.224h-1.111c-3.495,0-3.335,2.771-3.335,5,0,.015,0,.031,0,.046v3.428a1.112,1.112,0,1,1-2.224,0Zm-24.826,0V298.4H1491.8a1.112,1.112,0,1,1,0-2.224h2.249c.149-2.992,1.042-6.044,5.519-6.044h1.125a1.112,1.112,0,1,1,0,2.223h-1.111c-2.894,0-3.282,1.9-3.33,3.821h2.218a1.112,1.112,0,0,1,0,2.224h-2.224v7.712a1.112,1.112,0,1,1-2.223,0Zm-33.534,1.112c-3.566,0-3.321-2.111-3.321-5.42v-3.4h-2.223a1.112,1.112,0,1,1,0-2.224h2.223v-4.933a1.112,1.112,0,1,1,2.223,0v4.933h2.224a1.112,1.112,0,0,1,0,2.224H1459.4v4.238a1.146,1.146,0,0,1-.006.123c-.013,1.553.031,2.239,1.119,2.239h1.111a1.112,1.112,0,0,1,0,2.224Zm-57.308-1.112v-9.032a1.112,1.112,0,0,1,2.1-.5,5.05,5.05,0,0,1,3.443-1.164h1.125a1.112,1.112,0,0,1,0,2.224h-1.111c-3.495,0-3.335,2.771-3.335,5,0,.015,0,.031,0,.046v3.428a1.112,1.112,0,1,1-2.224,0Zm-9.37,0V298.4h-2.223a1.112,1.112,0,0,1,0-2.224h2.25c.148-2.992,1.042-6.044,5.518-6.044h1.126a1.112,1.112,0,1,1,0,2.223h-1.112c-2.894,0-3.281,1.9-3.329,3.821h2.218a1.112,1.112,0,0,1,0,2.224h-2.223v7.712a1.112,1.112,0,1,1-2.224,0Zm-18.476,0V291.524a1.112,1.112,0,0,1,2.224,0v14.591a1.112,1.112,0,1,1-2.224,0Zm155.148-.006V291.49a1.114,1.114,0,1,1,2.228,0v9.56l5.963-4.829a1.114,1.114,0,1,1,1.4,1.732l-5.025,4.069,4.917,3.073a1.114,1.114,0,1,1-1.159,1.9l-.021-.013-5.567-3.479-.509.412v2.192a1.114,1.114,0,1,1-2.228,0Zm331.255-.251v-5.084H1852.7v5.084a1.13,1.13,0,1,1-2.26,0V293.43a1.13,1.13,0,1,1,2.26,0v5.084h9.039V293.43a1.13,1.13,0,1,1,2.26,0v12.428a1.13,1.13,0,1,1-2.26,0Zm-531.343,0V293.43a1.13,1.13,0,0,1,1.13-1.13h9.04a1.13,1.13,0,0,1,0,2.26h-7.909v3.955h4.52a1.13,1.13,0,0,1,0,2.26h-4.52v5.085a1.13,1.13,0,0,1-2.26,0Zm500.7-14.2a1.111,1.111,0,1,1,1.111,1.112A1.112,1.112,0,0,1,1831.1,291.663Zm-249.354,0a1.111,1.111,0,1,1,1.111,1.112A1.112,1.112,0,0,1,1581.748,291.663Zm186.186-59.128V217.527a1.112,1.112,0,1,1,2.223,0v.285a6.115,6.115,0,1,1,0,9.435v5.288a1.112,1.112,0,1,1-2.223,0Zm2.223-10.005a3.891,3.891,0,1,0,3.892-3.891A3.892,3.892,0,0,0,1770.157,222.53Zm-112.032,10.005V217.527a1.111,1.111,0,1,1,2.223,0v.285a6.115,6.115,0,1,1,0,9.435v5.288a1.111,1.111,0,1,1-2.223,0Zm2.223-10.005a3.891,3.891,0,1,0,3.892-3.891A3.892,3.892,0,0,0,1660.348,222.53Zm146.666,11.117a1.111,1.111,0,1,1,0-2.223h1.111c3.358,0,3.335-1.147,3.335-2.223V218.083a1.111,1.111,0,1,1,2.223,0V229.2c0,1.111.243,4.446-5.544,4.446Zm-334.429-3.335a1.112,1.112,0,0,1,2.224,0v.034a1.108,1.108,0,0,1-.01.144c.046.345.48,1.072,3.322,1.072,3.575,0,3.342-1.222,3.342-2.362v-1.1a7.114,7.114,0,0,1-3.325.68c-5.536,0-5.568-3.866-5.568-5,0-.021,0-.041,0-.062v-5.636a1.112,1.112,0,0,1,2.224,0v5.7c0,1.105.014,2.918,3.343,2.918,3.036,0,3.3-1.516,3.325-2.614v-6a1.112,1.112,0,0,1,1.112-1.112h0a1.112,1.112,0,0,1,1.112,1.112V229.2c0,.022,0,.043,0,.065.012,1.194.278,4.381-5.567,4.381C1471.99,233.646,1472.585,230.312,1472.585,230.312Zm40.892-2.249a7.015,7.015,0,0,1-3.4.72c-5.536,0-5.568-3.866-5.568-5,0-.021,0-.041,0-.062v-5.636a1.112,1.112,0,0,1,2.224,0v5.7c0,1.105.013,2.918,3.343,2.918s3.327-1.824,3.327-2.918v-5.7a1.111,1.111,0,1,1,2.223,0v9.589a1.111,1.111,0,0,1-2.152.391Zm347.234-2.842h.028a1.112,1.112,0,0,1,1.083-.863h.258a1.112,1.112,0,0,1,1.085.863h.028a.339.339,0,0,0-.015.067,1.119,1.119,0,0,1,.015.182v.057c.093.347.555.867,2.5.867,3.155,0,2.521-1.727,2.521-1.727,0-1.691-7.5-.481-7.5-4.423,0,0-.557-3.871,4.983-3.871s4.983,3.453,4.983,3.453h-.028a1.112,1.112,0,0,1-1.084.863h-.258a1.112,1.112,0,0,1-1.084-.863h-.028a.525.525,0,0,0,.008-.113c0-.032-.006-.063-.007-.1-.052-.369-.418-1.1-2.5-1.1-2.92,0-2.521,1.727-2.521,1.727,0,1.691,7.5.548,7.5,4.423,0,0,.611,4.01-4.983,4.01S1860.71,225.221,1860.71,225.221Zm-155.442,0h.028a1.111,1.111,0,0,1,1.084-.863h.258a1.111,1.111,0,0,1,1.084.863h.028a.425.425,0,0,0-.014.067,1.118,1.118,0,0,1,.014.182v.057c.093.347.556.867,2.5.867,3.154,0,2.52-1.727,2.52-1.727,0-1.691-7.5-.481-7.5-4.423,0,0-.557-3.871,4.983-3.871s4.982,3.453,4.982,3.453h-.028a1.111,1.111,0,0,1-1.084.863h-.258a1.111,1.111,0,0,1-1.084-.863h-.028a.6.6,0,0,0,.008-.113c0-.032-.006-.063-.007-.1-.052-.369-.418-1.1-2.5-1.1-2.92,0-2.521,1.727-2.521,1.727,0,1.691,7.5.548,7.5,4.423,0,0,.612,4.01-4.982,4.01S1705.269,225.221,1705.269,225.221Zm-14.26,0h.028a1.113,1.113,0,0,1,1.085-.863h.258a1.112,1.112,0,0,1,1.084.863h.028a.413.413,0,0,0-.015.067,1.119,1.119,0,0,1,.015.182v.057c.093.347.556.867,2.5.867,3.155,0,2.521-1.727,2.521-1.727,0-1.691-7.5-.481-7.5-4.423,0,0-.557-3.871,4.983-3.871s4.983,3.453,4.983,3.453h-.028a1.112,1.112,0,0,1-1.084.863h-.258a1.113,1.113,0,0,1-1.084-.863h-.027a.587.587,0,0,0,.008-.113c0-.032-.006-.063-.008-.1-.051-.369-.418-1.1-2.5-1.1-2.92,0-2.521,1.727-2.521,1.727,0,1.691,7.5.548,7.5,4.423,0,0,.611,4.01-4.982,4.01S1691.009,225.221,1691.009,225.221Zm-257.8,0h.028a1.113,1.113,0,0,1,1.084-.863h.258a1.112,1.112,0,0,1,1.084.863h.028a.413.413,0,0,0-.015.067,1.119,1.119,0,0,1,.015.182v.057c.093.347.556.867,2.5.867,3.155,0,2.521-1.727,2.521-1.727,0-1.691-7.5-.481-7.5-4.423,0,0-.557-3.871,4.983-3.871s4.983,3.453,4.983,3.453h-.028a1.112,1.112,0,0,1-1.084.863h-.258a1.113,1.113,0,0,1-1.084-.863h-.028a.526.526,0,0,0,.009-.113.821.821,0,0,1-.008-.1c-.051-.369-.418-1.1-2.5-1.1-2.92,0-2.521,1.727-2.521,1.727,0,1.691,7.5.548,7.5,4.423,0,0,.612,4.01-4.982,4.01S1433.213,225.221,1433.213,225.221Zm390.956,3.449a6.114,6.114,0,1,1,5.891-7.787,1.146,1.146,0,0,1,.067.257v0a1.227,1.227,0,0,1,.01.153,1.106,1.106,0,0,1-1.093,1.12h-8.756c0,.047,0,.093,0,.139a3.9,3.9,0,0,0,3.892,3.891,3.935,3.935,0,0,0,3.34-1.927l.005,0a1.122,1.122,0,0,1,.092-.158l.1-.139a1.112,1.112,0,0,1,1.822,1.276l-.1.139-.033.045a6.339,6.339,0,0,1-2.9,2.5,5.91,5.91,0,0,1-2.327.481Zm-2.352-9.208a3.851,3.851,0,0,0-.731.731h6.18a3.889,3.889,0,0,0-5.449-.731Zm-183.037,9.208a6.114,6.114,0,1,1,5.891-7.787,1.1,1.1,0,0,1,.067.257v0a1.083,1.083,0,0,1,.01.153,1.106,1.106,0,0,1-1.093,1.12H1634.9c0,.047,0,.093,0,.139a3.894,3.894,0,0,0,3.891,3.891,3.934,3.934,0,0,0,3.34-1.927l.005,0a1.139,1.139,0,0,1,.093-.158l.1-.139a1.112,1.112,0,0,1,1.821,1.276l-.1.139-.033.045a6.339,6.339,0,0,1-2.9,2.5,5.907,5.907,0,0,1-2.327.481Zm-2.352-9.208a3.851,3.851,0,0,0-.731.731h6.18a3.889,3.889,0,0,0-5.449-.731Zm-64.386,9.208a6.114,6.114,0,1,1,5.891-7.787,1.146,1.146,0,0,1,.067.257v0a1.227,1.227,0,0,1,.01.153,1.106,1.106,0,0,1-1.093,1.12h-8.756c0,.047,0,.093,0,.139a3.9,3.9,0,0,0,3.892,3.891,3.935,3.935,0,0,0,3.34-1.927l.005,0a1.146,1.146,0,0,1,.092-.158l.1-.139a1.112,1.112,0,0,1,1.822,1.276l-.1.139-.033.045a6.34,6.34,0,0,1-2.9,2.5,5.909,5.909,0,0,1-2.326.481Zm-2.352-9.208a3.847,3.847,0,0,0-.731.731h6.18a3.889,3.889,0,0,0-5.449-.731Zm-116.32,9.208a6.114,6.114,0,1,1,5.891-7.787,1.1,1.1,0,0,1,.067.257v0a1.083,1.083,0,0,1,.01.153,1.106,1.106,0,0,1-1.093,1.12h-8.756c0,.047,0,.093,0,.139a3.894,3.894,0,0,0,3.891,3.891,3.935,3.935,0,0,0,3.34-1.927l.005,0a1.151,1.151,0,0,1,.093-.158l.1-.139a1.112,1.112,0,0,1,1.821,1.276l-.1.139-.033.045a6.34,6.34,0,0,1-2.9,2.5,5.906,5.906,0,0,1-2.327.481Zm-2.352-9.208a3.846,3.846,0,0,0-.731.731h6.18a3.889,3.889,0,0,0-5.45-.731Zm226.932,8.7a6.116,6.116,0,1,1,6.372-10.265,1.111,1.111,0,0,1,2.122.463v8.616a1.111,1.111,0,0,1-2.2.247,6.118,6.118,0,0,1-6.3.94Zm-1.511-5.634a3.891,3.891,0,1,0,3.891-3.891A3.891,3.891,0,0,0,1676.442,222.53Zm-90.868,5.634a6.116,6.116,0,1,1,6.371-10.265,1.112,1.112,0,0,1,2.123.463v8.616a1.112,1.112,0,0,1-2.2.247,6.116,6.116,0,0,1-6.3.94Zm-1.511-5.634a3.891,3.891,0,1,0,3.891-3.891A3.89,3.89,0,0,0,1584.063,222.53Zm-163.906,5.634a6.116,6.116,0,1,1,6.372-10.265,1.111,1.111,0,0,1,2.122.463v8.616a1.111,1.111,0,0,1-2.2.247,6.118,6.118,0,0,1-6.3.94Zm-1.511-5.634a3.891,3.891,0,1,0,3.891-3.891A3.891,3.891,0,0,0,1418.646,222.53Zm421.421,6.115a6.116,6.116,0,1,1,2.385-11.752,6.15,6.15,0,0,1,1.666,1.045l-.009.008.1.087a1.112,1.112,0,1,1-1.459,1.678l-.311-.269-.021-.019a3.891,3.891,0,1,0-2.338,7,3.835,3.835,0,0,0,2.415-.89l.256-.222a1.112,1.112,0,0,1,1.459,1.679l-.122.105,0,0a6.268,6.268,0,0,1-1.69,1.068,5.884,5.884,0,0,1-2.321.481Zm-39.077,0a6.1,6.1,0,1,1,.014,0Zm-3.892-6.115a3.891,3.891,0,1,0,3.892-3.891A3.892,3.892,0,0,0,1797.1,222.53Zm-64.548,6.115a6.1,6.1,0,1,1,.013,0Zm-3.891-6.115a3.891,3.891,0,1,0,3.891-3.891A3.892,3.892,0,0,0,1728.659,222.53Zm-181.921,6.115a6.116,6.116,0,1,1,2.385-11.752,6.15,6.15,0,0,1,1.666,1.045l-.009.008.1.087a1.112,1.112,0,1,1-1.459,1.678l-.311-.269-.021-.019a3.891,3.891,0,1,0-2.338,7,3.835,3.835,0,0,0,2.415-.89l.256-.222a1.112,1.112,0,0,1,1.459,1.679l-.122.105,0,0a6.268,6.268,0,0,1-1.69,1.068,5.884,5.884,0,0,1-2.321.481Zm-52.559,0a6.1,6.1,0,1,1,.014,0Zm-3.892-6.115a3.891,3.891,0,1,0,3.892-3.891A3.892,3.892,0,0,0,1490.287,222.53Zm-82.107,6.115a6.116,6.116,0,1,1,2.385-11.752,6.133,6.133,0,0,1,1.665,1.045l-.008.008.1.087a1.112,1.112,0,0,1-1.459,1.678l-.31-.269-.021-.019a3.891,3.891,0,1,0-2.338,7,3.837,3.837,0,0,0,2.415-.89l.255-.222a1.112,1.112,0,0,1,1.46,1.679l-.121.105,0,0a6.273,6.273,0,0,1-1.691,1.068,5.877,5.877,0,0,1-2.32.481Zm-40.883,0a6.1,6.1,0,1,1,.014,0Zm-3.892-6.115a3.891,3.891,0,1,0,3.892-3.891A3.892,3.892,0,0,0,1363.406,222.53Zm-33.384,1.568a1.112,1.112,0,0,1,2.223,0v.362c.073.631.57,1.861,3.335,1.861,3.787,0,3.335-2.223,3.335-2.223,0-2.177-8.894-1.872-8.894-6.948,0,0-.622-4.447,5.558-4.447,4.318,0,5.315,2.171,5.525,3.479a1.115,1.115,0,0,1,.033.267,3.267,3.267,0,0,1,0,.7,1.112,1.112,0,0,1-2.223,0v-.017c0-.205-.114-2.207-3.335-2.207-3.83,0-3.335,2.224-3.335,2.224,0,2.177,8.894,1.959,8.894,6.948,0,0,.681,4.447-5.558,4.447S1330.022,224.1,1330.022,224.1Zm421.9,3.057h0v-5.7c0-1.1-.014-2.918-3.342-2.918-3.307,0-3.328,1.8-3.328,2.9v5.719a1.112,1.112,0,0,1-2.223,0v-9.589a1.111,1.111,0,0,1,2.152-.392,7.019,7.019,0,0,1,3.4-.72c5.535,0,5.568,3.866,5.568,5,0,.022,0,.042,0,.062v5.636a1.112,1.112,0,0,1-2.223,0Zm102.658,1.073c-3.567,0-3.322-2.11-3.322-5.42v-3.4h-2.223a1.112,1.112,0,1,1,0-2.223h2.223v-4.934a1.112,1.112,0,0,1,2.224,0v4.934h2.223a1.112,1.112,0,1,1,0,2.223h-2.223v4.238a1.145,1.145,0,0,1-.007.124c-.013,1.552.031,2.238,1.119,2.238h1.111a1.112,1.112,0,1,1,0,2.224Zm-70.034-1.111v-9.033a1.111,1.111,0,0,1,2.1-.5,5.048,5.048,0,0,1,3.443-1.165h1.126a1.112,1.112,0,0,1,0,2.224H1790.1c-3.495,0-3.334,2.771-3.334,5,0,.016,0,.031,0,.046v3.429a1.111,1.111,0,1,1-2.223,0Zm-64.7,0v-9.033a1.112,1.112,0,1,1,2.223,0v9.033a1.112,1.112,0,0,1-2.223,0Zm-108.8,0v-9.033a1.112,1.112,0,1,1,2.223,0v9.033a1.112,1.112,0,0,1-2.223,0Zm-6.448,1.111c-3.567,0-3.322-2.11-3.322-5.42v-3.4h-2.223a1.112,1.112,0,1,1,0-2.223h2.223v-4.934a1.112,1.112,0,0,1,2.224,0v4.934h2.223a1.112,1.112,0,1,1,0,2.223H1603.5v4.238a1.145,1.145,0,0,1-.007.124c-.013,1.552.031,2.238,1.119,2.238h1.111a1.112,1.112,0,0,1,0,2.224Zm-48.992-1.111v-9.033a1.111,1.111,0,0,1,2.1-.5,5.048,5.048,0,0,1,3.443-1.165h1.126a1.112,1.112,0,0,1,0,2.224h-1.112c-3.495,0-3.335,2.771-3.335,5,0,.016,0,.031,0,.046v3.429a1.112,1.112,0,0,1-2.223,0Zm-35.07,0v-9.033a1.112,1.112,0,0,1,2.1-.5,5.046,5.046,0,0,1,3.443-1.165h1.126a1.112,1.112,0,0,1,0,2.224h-1.111c-3.5,0-3.335,2.771-3.335,5a.4.4,0,0,1,0,.046v3.429a1.112,1.112,0,0,1-2.223,0Zm-165.826,0h0v-5.7c0-1.105-.014-2.918-3.342-2.918-3.307,0-3.328,1.8-3.328,2.9v5.719a1.112,1.112,0,0,1-2.223,0V212.524a1.112,1.112,0,0,1,2.223,0V217.1a7.111,7.111,0,0,1,3.328-.683c5.535,0,5.568,3.867,5.568,5,0,.021,0,.041,0,.062v5.636a1.112,1.112,0,0,1-2.223,0Zm268.621,1.111h-.01a1.111,1.111,0,0,1-.973-.572l-4.982-8.987a1.112,1.112,0,1,1,1.931-1.1l.014.025,4.02,7.251,4.019-7.251a1.112,1.112,0,1,1,1.945,1.078l-4.981,8.986a1.113,1.113,0,0,1-.973.573Zm-230.607-.092a1.111,1.111,0,0,1-.975-.573l-4.019-7.251-4.019,7.251a1.113,1.113,0,0,1-.973.573h-.02a1.111,1.111,0,0,1-.973-.573l-4.982-8.986a1.112,1.112,0,1,1,1.945-1.077l4.019,7.251,4.02-7.251a1.129,1.129,0,0,1,1.966,0l4.02,7.251,4.019-7.251a1.111,1.111,0,1,1,1.944,1.077l-4.981,8.986a1.113,1.113,0,0,1-.973.573Zm418.74-15.471a1.111,1.111,0,1,1,1.111,1.111A1.112,1.112,0,0,1,1811.461,212.664Zm-91.616,0a1.112,1.112,0,1,1,1.111,1.111A1.112,1.112,0,0,1,1719.844,212.664Zm-108.8,0a1.112,1.112,0,1,1,1.112,1.111A1.112,1.112,0,0,1,1611.043,212.664Zm-31.857-25.129V172.527a1.112,1.112,0,1,1,2.223,0v.285a6.115,6.115,0,1,1,0,9.435v5.288a1.112,1.112,0,1,1-2.223,0Zm2.223-10.005a3.891,3.891,0,1,0,3.892-3.891A3.892,3.892,0,0,0,1581.409,177.53Zm-177.074,7.782a1.112,1.112,0,0,1,2.223,0v.034a1.087,1.087,0,0,1-.009.144c.046.345.479,1.072,3.321,1.072,3.575,0,3.343-1.222,3.343-2.362v-1.1a7.115,7.115,0,0,1-3.325.68c-5.535,0-5.568-3.866-5.568-5,0-.021,0-.041,0-.062v-5.636a1.112,1.112,0,1,1,2.223,0v5.7c0,1.105.014,2.918,3.343,2.918,3.036,0,3.3-1.516,3.325-2.614v-6a1.112,1.112,0,0,1,1.112-1.112h0a1.112,1.112,0,0,1,1.111,1.112V184.2c0,.022,0,.043,0,.065.012,1.194.278,4.381-5.566,4.381C1403.741,188.646,1404.335,185.312,1404.335,185.312Zm91.859-2.249a7.015,7.015,0,0,1-3.4.72c-5.535,0-5.568-3.866-5.568-5,0-.021,0-.041,0-.062v-5.636a1.112,1.112,0,1,1,2.223,0v5.7c0,1.105.014,2.918,3.343,2.918s3.328-1.824,3.328-2.918v-5.7a1.112,1.112,0,1,1,2.223,0v9.589a1.112,1.112,0,0,1-2.153.391Zm-50.967,0a7.015,7.015,0,0,1-3.4.72c-5.535,0-5.568-3.866-5.568-5,0-.021,0-.041,0-.062v-5.636a1.112,1.112,0,1,1,2.223,0v5.7c0,1.105.014,2.918,3.343,2.918s3.328-1.824,3.328-2.918v-5.7a1.112,1.112,0,1,1,2.223,0v9.589a1.112,1.112,0,0,1-2.153.391Zm57.707-2.842h.028a1.112,1.112,0,0,1,1.084-.863h.258a1.113,1.113,0,0,1,1.084.863h.028a.339.339,0,0,0-.015.067,1.119,1.119,0,0,1,.015.182v.057c.093.347.555.867,2.5.867,3.155,0,2.521-1.727,2.521-1.727,0-1.691-7.5-.481-7.5-4.423,0,0-.557-3.871,4.983-3.871s4.983,3.453,4.983,3.453h-.028a1.113,1.113,0,0,1-1.085.863h-.258a1.112,1.112,0,0,1-1.084-.863h-.028a.517.517,0,0,0,.008-.112c0-.032-.006-.063-.007-.1-.052-.369-.418-1.1-2.5-1.1-2.92,0-2.521,1.727-2.521,1.727,0,1.691,7.5.548,7.5,4.423,0,0,.611,4.009-4.983,4.009S1502.933,180.221,1502.933,180.221Zm-117.811,3.449a6.114,6.114,0,1,1,5.891-7.787,1.194,1.194,0,0,1,.067.257v0a1.227,1.227,0,0,1,.01.153,1.106,1.106,0,0,1-1.093,1.12h-8.756c0,.047,0,.093,0,.139a3.9,3.9,0,0,0,3.892,3.891,3.935,3.935,0,0,0,3.34-1.927l.005,0a1.135,1.135,0,0,1,.092-.158l.1-.14a1.112,1.112,0,0,1,1.822,1.276l-.1.139-.033.045a6.339,6.339,0,0,1-2.9,2.5,5.909,5.909,0,0,1-2.326.481Zm-2.352-9.208a3.85,3.85,0,0,0-.731.731h6.18a3.889,3.889,0,0,0-5.449-.731Zm-30.57,8.7a6.116,6.116,0,1,1,6.372-10.265,1.111,1.111,0,0,1,2.122.463v8.616a1.111,1.111,0,0,1-2.2.247,6.117,6.117,0,0,1-6.3.94Zm-1.511-5.634a3.891,3.891,0,1,0,3.892-3.891A3.891,3.891,0,0,0,1350.689,177.53Zm331.88,6.115a6.1,6.1,0,1,1,.014,0Zm-3.891-6.115a3.891,3.891,0,1,0,3.891-3.891A3.891,3.891,0,0,0,1678.679,177.53Zm-26.433,6.115a6.1,6.1,0,1,1,.014,0Zm-3.892-6.115a3.891,3.891,0,1,0,3.892-3.891A3.892,3.892,0,0,0,1648.354,177.53Zm-46.971,6.115a6.1,6.1,0,1,1,.014,0Zm-3.891-6.115a3.891,3.891,0,1,0,3.891-3.891A3.892,3.892,0,0,0,1597.493,177.53Zm-62.595,6.115a6.1,6.1,0,1,1,.014,0Zm-3.891-6.115a3.891,3.891,0,1,0,3.891-3.891A3.891,3.891,0,0,0,1531.007,177.53Zm-52.519,6.115a6.116,6.116,0,1,1,4.05-10.707l-.008.008.1.087a1.112,1.112,0,0,1-1.459,1.678l-.31-.269-.021-.019a3.891,3.891,0,1,0-2.338,7,3.837,3.837,0,0,0,2.415-.89l.255-.222a1.112,1.112,0,0,1,1.46,1.678l-.121.105,0,0a6.273,6.273,0,0,1-1.691,1.068,5.877,5.877,0,0,1-2.32.481Zm-52.56,0a6.1,6.1,0,1,1,.013,0Zm-3.891-6.115a3.891,3.891,0,1,0,3.891-3.891A3.892,3.892,0,0,0,1422.038,177.53Zm247.826,4.586v-9.033a1.112,1.112,0,0,1,2.224,0v9.033a1.112,1.112,0,0,1-2.224,0Zm-7.14,0V167.524a1.111,1.111,0,1,1,2.223,0v14.592a1.111,1.111,0,1,1-2.223,0Zm-24.847,0V174.4h-2.223a1.112,1.112,0,0,1,0-2.223h2.25c.148-2.992,1.042-6.045,5.518-6.045h1.126a1.112,1.112,0,0,1,0,2.224h-1.112c-2.894,0-3.281,1.9-3.329,3.821h2.218a1.112,1.112,0,1,1,0,2.223H1640.1v7.713a1.112,1.112,0,0,1-2.224,0Zm-8.774,1.111c-3.567,0-3.322-2.111-3.322-5.42v-3.4h-2.223a1.112,1.112,0,0,1,0-2.223h2.223v-4.934a1.112,1.112,0,0,1,2.224,0v4.934h2.223a1.112,1.112,0,0,1,0,2.223H1628v4.238a1.145,1.145,0,0,1-.007.124c-.013,1.553.031,2.238,1.119,2.238h1.112a1.112,1.112,0,0,1,0,2.224Zm-17.262-1.111v-9.033a1.112,1.112,0,0,1,2.1-.5,5.046,5.046,0,0,1,3.443-1.165h1.125a1.112,1.112,0,0,1,0,2.224H1617.4c-3.495,0-3.335,2.771-3.335,5,0,.016,0,.031,0,.046v3.429a1.112,1.112,0,0,1-2.224,0Zm-48.677,0v-5.7c0-1.105-.014-2.918-3.343-2.918-3.113,0-3.314,1.595-3.326,2.7,0,.082,0,.157,0,.221,0,.021,0,.041,0,.062v5.636a1.112,1.112,0,0,1-2.224,0v-5.7c0-1.105-.013-2.918-3.343-2.918-3.307,0-3.327,1.8-3.327,2.9v5.719a1.112,1.112,0,0,1-2.224,0v-9.589a1.112,1.112,0,0,1,2.153-.391,7.014,7.014,0,0,1,3.4-.721c2.306,0,3.656.671,4.447,1.535.788-.865,2.137-1.535,4.447-1.535,5.535,0,5.568,3.867,5.568,5,0,.021,0,.041,0,.062v5.636a1.112,1.112,0,0,1-2.223,0Zm-40.006,1.111c-3.566,0-3.321-2.111-3.321-5.42v-3.4h-2.224a1.112,1.112,0,0,1,0-2.223h2.224v-4.934a1.112,1.112,0,1,1,2.223,0v4.934h2.224a1.112,1.112,0,1,1,0,2.223h-2.224v4.238a1.144,1.144,0,0,1-.006.124c-.013,1.553.031,2.238,1.118,2.238h1.112a1.112,1.112,0,0,1,0,2.224Zm-70.874-1.111v-9.033a1.111,1.111,0,0,1,2.1-.5,5.048,5.048,0,0,1,3.443-1.165h1.126a1.112,1.112,0,0,1,0,2.224h-1.112c-3.495,0-3.334,2.771-3.334,5,0,.016,0,.031,0,.046v3.429a1.112,1.112,0,0,1-2.223,0Zm-86.688-.007V167.49a1.114,1.114,0,1,1,2.228,0v9.56l5.963-4.829a1.114,1.114,0,1,1,1.4,1.731l-5.025,4.07,4.917,3.073a1.114,1.114,0,1,1-1.159,1.9l-.022-.014-5.568-3.479-.508.412v2.192a1.114,1.114,0,1,1-2.228,0Zm-23.9-.25v-8.666l-3.52,5.42a1.1,1.1,0,0,1-.193.226,1.13,1.13,0,0,1-1.6.085,1.109,1.109,0,0,1-.192-.224l-3.538-5.449v8.608a1.13,1.13,0,1,1-2.26,0V169.43a1.13,1.13,0,0,1,2.123-.538l4.638,7.141,4.677-7.2a1.152,1.152,0,0,1,2.12.6v12.428a1.13,1.13,0,1,1-2.26,0Zm328.166-14.195a1.112,1.112,0,1,1,1.112,1.111A1.112,1.112,0,0,1,1669.864,167.664Zm154.587-65.688V85.42c0-9.184,3.354-14.575,13.365-14.575,10.065,0,13.475,5.39,13.475,14.575v16.556c0,9.185-3.41,14.684-13.475,14.684C1827.8,116.66,1824.45,111.16,1824.45,101.975ZM1834.515,83V104.45c0,2.53.221,5.225,3.3,5.225s3.41-2.695,3.41-5.225V83c0-2.64-.33-5.225-3.41-5.225C1834.9,77.775,1834.515,80.36,1834.515,83Zm-97.9,18.976V85.42c0-9.184,3.355-14.575,13.365-14.575,10.066,0,13.475,5.39,13.475,14.575v16.556c0,9.185-3.409,14.684-13.475,14.684C1739.97,116.66,1736.615,111.16,1736.615,101.975ZM1746.68,83V104.45c0,2.53.22,5.225,3.3,5.225s3.41-2.695,3.41-5.225V83c0-2.64-.33-5.225-3.41-5.225C1747.065,77.775,1746.68,80.36,1746.68,83ZM1603.9,101.975V85.42c0-9.184,3.355-14.575,13.365-14.575,10.065,0,13.475,5.39,13.475,14.575v16.556c0,9.185-3.41,14.684-13.475,14.684C1607.255,116.66,1603.9,111.16,1603.9,101.975ZM1613.965,83V104.45c0,2.53.221,5.225,3.3,5.225s3.41-2.695,3.41-5.225V83c0-2.64-.33-5.225-3.41-5.225C1614.35,77.775,1613.965,80.36,1613.965,83Zm-146.08,18.976V85.42c0-9.184,3.355-14.575,13.365-14.575,10.066,0,13.475,5.39,13.475,14.575v16.556c0,9.185-3.409,14.684-13.475,14.684C1471.24,116.66,1467.885,111.16,1467.885,101.975ZM1477.95,83V104.45c0,2.53.22,5.225,3.3,5.225s3.41-2.695,3.41-5.225V83c0-2.64-.33-5.225-3.41-5.225C1478.335,77.775,1477.95,80.36,1477.95,83ZM1405.4,102.525l8.415-1.265c.11,5.775,1.43,7.92,3.905,7.92,2.035,0,2.475-1.7,2.475-3.244,0-3.686-1.87-5.885-4.9-8.471l-3.85-3.354c-3.41-2.86-5.995-6.215-5.995-11.606,0-7.535,4.785-11.66,12.485-11.66,9.516,0,10.89,7.425,11.056,12.65l-8.47,1.045c-.111-3.96-.385-6.49-2.915-6.49-1.815,0-2.641,1.925-2.641,3.465,0,3.3,1.706,5.06,4.29,7.315l3.685,3.245c3.85,3.3,6.931,7.2,6.931,13.365,0,6.324-4.566,11.219-11.66,11.219C1409.805,116.66,1405.735,112.425,1405.4,102.525Zm-36.575-.33V71.45h9.735v32.23c0,2.805.33,5.885,3.465,5.885s3.41-3.08,3.41-5.885V71.45h9.789v30.745c0,9.35-2.969,14.465-13.2,14.465C1371.745,116.66,1368.83,111.545,1368.83,102.195Zm-36.135-.385V85.75c0-9.24,3.191-14.9,13.365-14.9,9.845,0,12.815,5.279,12.815,12.87v3.849h-9.625V83.11c0-2.585-.056-5.334-3.191-5.334s-3.41,2.8-3.41,5.5V104.23c0,3.025.495,5.445,3.41,5.445,3.08,0,3.191-2.75,3.191-5.445V99.555h9.625V103.4c0,7.591-2.86,13.255-12.815,13.255C1335.885,116.66,1332.695,110.83,1332.695,101.81ZM1803.66,116V71.45h9.845V116Zm-29.316,0V71.45h9.845v37.895h10.23V116Zm-65.89,0V71.45h19.25V78.1H1718.3v11.22h8.2V96.2h-8.2V116Zm-25.355,0V78.765h-6.71V71.45h23.265v7.315H1693V116Zm-23.925,0-4.9-19.965h-2.805V116h-9.845V71.45h12.265c8.965,0,14.8,2.42,14.8,11.77,0,5.5-1.045,9.13-5.445,11.219l6.1,21.56Zm-7.7-25.63h2.75c4.125,0,5.335-2.31,5.335-6.27,0-3.794-1.156-6.05-4.9-6.05h-3.19ZM1568.205,116V71.45h14.96c7.975,0,11.715,4.675,11.715,12.925,0,10.285-5.666,12.705-12.87,12.705h-3.96V116Zm9.845-25.795h3.3c3.631,0,4.29-1.925,4.29-5.995,0-3.355-.385-5.83-4.345-5.83h-3.245ZM1530.915,116l-.825-29.645L1524.92,116h-6.215l-5.5-29.865-.66,29.865h-7.1l.77-44.55h10.56l4.9,25.9,5.28-25.9h10.175l.77,44.55Zm-87.34,0V78.765h-6.709V71.45h23.265v7.315h-6.656V116Z" transform="translate(-13003 1526.155)"/><path class="c" d="M71.153,223.844A116.877,116.877,0,1,1,116.5,233,116.082,116.082,0,0,1,71.153,223.844ZM3.236,116.5A113.265,113.265,0,1,0,116.5,3.236,113.393,113.393,0,0,0,3.236,116.5Zm69.8,102.87a112.012,112.012,0,1,1,43.458,8.774A111.281,111.281,0,0,1,73.04,219.371ZM7.954,116.5A108.545,108.545,0,1,0,116.5,7.956,108.67,108.67,0,0,0,7.954,116.5ZM189.426,142.81a7.817,7.817,0,1,1,.015,0Zm-5.215-7.83a5.215,5.215,0,1,0,5.215-5.215A5.22,5.22,0,0,0,184.211,134.98ZM139.7,142.81a7.822,7.822,0,1,1,.015,0Zm-5.214-7.83a5.215,5.215,0,1,0,5.215-5.215A5.22,5.22,0,0,0,134.483,134.98Zm-72.738,7.83a7.817,7.817,0,1,1,.015,0Zm-5.214-7.83a5.214,5.214,0,1,0,5.214-5.215A5.22,5.22,0,0,0,56.532,134.98Zm28.887,7.173-5.3-5.3H79.75v4.293a1.334,1.334,0,0,1-2.668,0v-12.38a1.336,1.336,0,0,1,1.335-1.334h4.19a5.249,5.249,0,0,1,4.119,1.482,3.986,3.986,0,0,1,.818,1.5,5.8,5.8,0,0,1,.225,1.657,6.023,6.023,0,0,1-.224,1.673,4.152,4.152,0,0,1-.814,1.548,4.547,4.547,0,0,1-2.925,1.475l3.5,3.5a1.334,1.334,0,0,1-1.886,1.886ZM79.75,134.18h3.262A2.017,2.017,0,0,0,85.1,132.1a1.922,1.922,0,0,0-2.09-2.008H79.75Zm91.643,7.015V128.766a1.338,1.338,0,1,1,2.677,0v12.429a1.338,1.338,0,1,1-2.677,0Zm-15.02,1.338a1.34,1.34,0,0,1-1.338-1.338V128.766a1.338,1.338,0,0,1,2.677,0v11.091h5.441a1.338,1.338,0,1,1,0,2.677Zm-41.512-1.338V128.766a1.34,1.34,0,0,1,1.338-1.338h9.039a1.338,1.338,0,1,1,0,2.677h-7.7v3.538h4.311a1.338,1.338,0,1,1,0,2.677h-4.311v4.876a1.338,1.338,0,1,1-2.677,0Zm-15.224,0V130.1H95.325a1.338,1.338,0,1,1,0-2.677h11.3a1.338,1.338,0,1,1,0,2.677h-4.311v11.091a1.338,1.338,0,0,1-2.677,0Zm-63.085,0V128.766a1.34,1.34,0,0,1,1.338-1.338H42.1a5.27,5.27,0,0,1,4.135,1.489,4,4,0,0,1,.821,1.508,5.812,5.812,0,0,1,.226,1.663,6.008,6.008,0,0,1-.226,1.68,4.168,4.168,0,0,1-.817,1.553,5.156,5.156,0,0,1-4.138,1.562H39.228v4.311a1.338,1.338,0,1,1-2.677,0Zm2.677-6.988H42.5a2.026,2.026,0,0,0,2.1-2.085,1.949,1.949,0,0,0-2.1-2.017H39.228Zm61.029-18.413c-3.659,0-6.308-.925-7.875-2.75a6.457,6.457,0,0,1-1.463-4.811,2.137,2.137,0,0,1,2.138-2.111h0a2.139,2.139,0,0,1,2.137,2.137v.567c.125,1.016.953,2.7,5.063,2.7,2.209,0,3.783-.492,4.552-1.423a2.276,2.276,0,0,0,.516-1.774l-.006-.066c0-1.153-2.2-1.9-4.751-2.766-4.292-1.457-9.633-3.27-9.648-8.462A6.545,6.545,0,0,1,92.442,92.2c1.576-1.812,4.2-2.73,7.816-2.73,7.233,0,8.917,3.691,9.275,5.9a2.112,2.112,0,0,1,.061.481,5.675,5.675,0,0,1,0,1.173,2.138,2.138,0,0,1-4.275-.019V96.98c0-.327-.19-3.235-5.062-3.235-2.242,0-3.828.495-4.586,1.431a2.233,2.233,0,0,0-.483,1.76l.008.071c0,1.162,2.222,1.931,4.8,2.822,4.271,1.479,9.586,3.318,9.6,8.4a6.449,6.449,0,0,1-1.463,4.81c-1.567,1.826-4.216,2.751-7.875,2.751Zm-34.375-2.977a6.726,6.726,0,0,1-1.6-4.919V92.6a2.166,2.166,0,0,1,4.333,0v15.947c.13,1.1.976,2.914,5.148,2.914,4.221,0,5.052-1.848,5.167-2.968,0-.04,0-.081,0-.122V92.6a2.166,2.166,0,0,1,4.333,0V107.9a6.736,6.736,0,0,1-1.606,4.918c-1.611,1.827-4.265,2.753-7.889,2.753h0C70.142,115.569,67.489,114.642,65.882,112.816Zm-17.445,2.532a12.881,12.881,0,0,1-5-1.012,12.83,12.83,0,1,1,12.98-21.862,1.807,1.807,0,0,1,.2.167,2,2,0,0,1,.138,2.651,2.118,2.118,0,0,1-2.884.6l-.013.013-.274-.205-.239-.16a2.029,2.029,0,0,1-.192-.146,8.441,8.441,0,0,0-4.7-1.423h-.025a8.547,8.547,0,1,0,0,17.095,8.4,8.4,0,0,0,4.756-1.444l.679-.53a2.145,2.145,0,0,1,3,.369,2.1,2.1,0,0,1-.272,2.956l-.064.05a12.821,12.821,0,0,1-8.1,2.881Zm105.675,0a15.382,15.382,0,1,1,.025,0h0Zm-8.441-12.677a8.442,8.442,0,1,0,8.442-8.443A8.452,8.452,0,0,0,145.671,102.667Zm46.673,10.19,0,0V99.836l-5.079,7.819a2.2,2.2,0,0,1-3.773.14L178.38,99.93v12.8a2.167,2.167,0,1,1-4.333,0V92.6a2.17,2.17,0,0,1,2.166-2.167h0a2.165,2.165,0,0,1,1.9,1.121l7.218,11.115,7.291-11.227a2.2,2.2,0,0,1,4.053,1.151v20.129a2.166,2.166,0,0,1-4.329.129Zm-67.937-.13V94.771h-6.979a2.167,2.167,0,0,1,0-4.334h18.293a2.167,2.167,0,1,1,0,4.334h-6.979v17.956a2.167,2.167,0,1,1-4.334,0Z" transform="translate(-11961 1602)"/></g></g></svg>