<svg xmlns="http://www.w3.org/2000/svg" width="144" height="144" viewBox="0 0 144 144"><defs><style>.a{fill:#f0e28d;}</style></defs><path class="a" d="M43.975,138.342A72.232,72.232,0,1,1,72,144,71.75,71.75,0,0,1,43.975,138.342ZM2,72A70,70,0,1,0,72,2,70.079,70.079,0,0,0,2,72Zm43.142,63.576A69.227,69.227,0,1,1,72,141,68.758,68.758,0,0,1,45.141,135.577ZM4.916,72A67.084,67.084,0,1,0,72,4.917,67.16,67.16,0,0,0,4.916,72ZM71.452,88.157a4.846,4.846,0,1,1,.009,0ZM68.224,83.31a3.228,3.228,0,1,0,3.228-3.228A3.232,3.232,0,0,0,68.224,83.31ZM44.893,88.157a4.846,4.846,0,1,1,.009,0ZM41.665,83.31a3.228,3.228,0,1,0,3.228-3.228A3.232,3.232,0,0,0,41.665,83.31Zm15.29,4.461h0a4.905,4.905,0,1,1,3.823-9.035,4.925,4.925,0,0,1,1.141.678.7.7,0,0,1,.076.063.775.775,0,0,1,.053,1.014.811.811,0,0,1-1.106.228l-.005,0-.1-.077-.091-.06a.755.755,0,0,1-.074-.056,3.224,3.224,0,0,0-1.8-.545h-.009a3.268,3.268,0,0,0,0,6.537h0a3.271,3.271,0,0,0,1.714-.486v-.46h-.99a.817.817,0,0,1,0-1.634H61.4a.818.818,0,0,1,.817.817v2.408a.818.818,0,0,1-1.39.583l-.05.021a4.951,4.951,0,0,1-3.82,0Zm-25.127.213A.829.829,0,0,1,31,87.157V79.463a.828.828,0,1,1,1.657,0v6.865h3.368a.828.828,0,1,1,0,1.657Zm25.18-18.259L51.7,64.42h-.364v4.294a1.334,1.334,0,0,1-2.669,0V56.334A1.335,1.335,0,0,1,50,55H54.2a5.25,5.25,0,0,1,4.119,1.482,3.989,3.989,0,0,1,.818,1.5,5.8,5.8,0,0,1,.225,1.657,6,6,0,0,1-.225,1.674,4.164,4.164,0,0,1-.814,1.548,4.542,4.542,0,0,1-2.925,1.474l3.5,3.5a1.334,1.334,0,0,1-1.886,1.886Zm-5.669-7.973H54.6a2.017,2.017,0,0,0,2.089-2.077A1.922,1.922,0,0,0,54.6,57.667H51.339Zm40.906,7.9-.2-.227h0l-8.32-9.571v8.909a1.338,1.338,0,0,1-2.677,0V56.338A1.337,1.337,0,0,1,82.391,55a1.558,1.558,0,0,1,1.093.494l8.584,9.877V56.338a1.338,1.338,0,0,1,2.677,0V68.766A1.339,1.339,0,0,1,93.416,70.1a1.236,1.236,0,0,1-.163.01A1.334,1.334,0,0,1,92.245,69.655Zm9.053.45h-.1a1.34,1.34,0,0,1-1.261-1.172,1.435,1.435,0,0,1-.01-.166V56.338A1.338,1.338,0,0,1,101.271,55h0c.027,0,.053,0,.08,0l.059,0h6.167a5.934,5.934,0,0,1,2.54.574,6.159,6.159,0,0,1,2.012,1.549,7.109,7.109,0,0,1,1.31,2.249,7.833,7.833,0,0,1,.467,2.691,9.486,9.486,0,0,1-1.747,5.413,6.788,6.788,0,0,1-2,1.889,5,5,0,0,1-2.6.739Zm1.31-2.677h3.817c2.831,0,4.805-2.749,4.805-5.215a4.627,4.627,0,0,0-4.805-4.537h-3.817ZM33.4,70.1a1.332,1.332,0,0,1-1.3-1.338V56.338A1.332,1.332,0,0,1,33.4,55h6.9a3.127,3.127,0,0,1,2.753,1.289,3.836,3.836,0,0,1,.558,1.306,6.381,6.381,0,0,1,.158,1.467,5,5,0,0,1-.751,2.806,2.951,2.951,0,0,1-.617.656,2.829,2.829,0,0,1,.653.678,3.836,3.836,0,0,1,.557,1.306,6.373,6.373,0,0,1,.158,1.466,5,5,0,0,1-.751,2.806A3.18,3.18,0,0,1,40.229,70.1Zm1.378-2.677h4.3c1.749,0,2.01-1.105,2.01-1.763,0-.787-.341-1.727-1.964-1.727H34.778Zm0-6.139h4.3c1.749,0,2.01-1.144,2.01-1.825,0-.815-.341-1.787-1.964-1.787H34.778Zm29.367,8.794a1.311,1.311,0,0,1-.548-.12l-.013-.006a1.32,1.32,0,0,1-.635-1.753l5.787-12.41a1.347,1.347,0,0,1,2.425,0l5.761,12.354a1.32,1.32,0,0,1-2.383,1.138L72.8,65.561a1.452,1.452,0,0,1-.153.008H67.09l-1.749,3.751a1.326,1.326,0,0,1-1.2.763Zm4.177-7.153h3.254L69.95,59.44Z"/></svg>