<?xml version="1.0" standalone="no"?>
<!DOCTYPE svg PUBLIC "-//W3C//DTD SVG 20010904//EN"
 "http://www.w3.org/TR/2001/REC-SVG-20010904/DTD/svg10.dtd">
<svg version="1.0" xmlns="http://www.w3.org/2000/svg"
 width="700.000000pt" height="700.000000pt" viewBox="0 0 700.000000 700.000000"
 preserveAspectRatio="xMidYMid meet">
<metadata>
Created by potrace 1.14, written by Peter Selinger 2001-2017
</metadata>
<g transform="translate(0.000000,700.000000) scale(0.100000,-0.100000)"
fill="#000000" stroke="none">
<path d="M2945 6979 c-190 -34 -203 -37 -330 -70 -738 -191 -1400 -625 -1877
-1229 -146 -186 -264 -373 -379 -601 -152 -304 -249 -598 -323 -986 -30 -155
-38 -298 -33 -635 2 -194 7 -364 10 -378 3 -14 11 -61 17 -105 7 -44 14 -89
16 -100 132 -698 464 -1334 959 -1831 165 -166 221 -215 401 -350 242 -182
534 -343 834 -459 119 -46 302 -106 368 -120 44 -10 58 -13 97 -24 22 -6 78
-18 124 -26 84 -16 96 -18 181 -30 25 -4 56 -8 70 -11 159 -25 681 -25 842 1
13 2 46 6 73 10 28 3 59 8 70 10 11 3 31 7 45 9 79 13 118 21 240 51 615 152
1179 471 1625 919 151 151 216 226 341 393 335 445 572 1006 650 1538 4 22 12
78 19 125 10 61 13 190 11 465 -2 209 -6 389 -9 400 -3 11 -8 45 -12 75 -4 30
-11 71 -15 90 -5 19 -12 54 -15 77 -10 74 -63 279 -105 408 -233 716 -693
1342 -1310 1782 -369 263 -839 471 -1280 565 -256 54 -286 57 -760 56 -386 0
-458 -3 -545 -19z m735 -84 c74 -3 146 -8 160 -9 93 -13 120 -16 165 -21 61
-7 223 -40 325 -65 422 -106 852 -311 1204 -574 208 -155 436 -371 586 -556
25 -30 47 -57 50 -60 3 -3 30 -39 61 -80 197 -267 370 -593 476 -900 47 -134
82 -248 89 -287 3 -14 7 -30 9 -33 2 -4 7 -22 10 -41 3 -19 10 -52 15 -74 5
-22 12 -56 15 -75 3 -19 8 -42 10 -50 2 -8 7 -42 11 -75 3 -33 8 -69 10 -80
26 -126 25 -710 -1 -845 -3 -14 -7 -45 -10 -70 -3 -25 -8 -56 -11 -70 -2 -14
-7 -38 -10 -55 -51 -289 -190 -691 -330 -953 -110 -206 -265 -442 -378 -573
-17 -19 -53 -62 -81 -94 -52 -62 -226 -238 -286 -290 -195 -170 -322 -263
-531 -388 -392 -235 -808 -379 -1303 -452 -138 -20 -583 -28 -745 -13 -244 23
-538 83 -725 148 -33 12 -76 26 -95 31 -115 34 -449 188 -565 261 -22 13 -47
27 -55 31 -60 27 -331 220 -445 317 -104 89 -242 223 -325 316 -96 107 -111
125 -187 226 -235 310 -408 638 -527 1003 -37 114 -74 246 -82 293 -3 15 -11
54 -19 87 -12 56 -18 87 -30 175 -2 19 -7 53 -10 75 -29 203 -34 580 -10 760
3 22 8 66 11 97 3 31 7 63 8 70 2 7 6 36 11 63 45 291 158 641 301 930 116
238 237 426 410 640 412 512 962 893 1590 1099 60 20 119 38 130 41 10 2 53
13 94 25 66 17 148 34 270 56 49 8 76 12 140 19 30 4 69 9 85 11 17 2 91 6
165 10 74 3 136 7 137 8 2 1 20 1 40 0 21 -1 99 -5 173 -9z"/>
<path d="M3338 6875 c-2 -2 -43 -5 -93 -9 -111 -7 -236 -23 -335 -41 -14 -3
-38 -7 -55 -10 -16 -2 -86 -18 -155 -35 -849 -207 -1593 -746 -2056 -1490 -82
-132 -165 -288 -214 -400 -18 -41 -38 -88 -45 -105 -49 -112 -129 -361 -159
-495 -30 -131 -54 -264 -62 -343 -3 -34 -8 -65 -10 -68 -7 -12 -18 -247 -18
-374 0 -121 10 -313 19 -367 2 -13 6 -45 10 -73 56 -470 253 -996 525 -1405
422 -635 1020 -1094 1749 -1342 163 -55 409 -115 551 -133 25 -3 52 -8 60 -10
8 -2 49 -7 90 -10 41 -4 89 -9 105 -11 17 -3 120 -6 230 -6 272 0 402 11 655
57 401 73 844 251 1197 481 102 66 254 176 289 208 7 6 31 26 54 45 225 183
468 459 654 743 100 152 147 239 256 473 112 239 216 610 255 905 78 595 2
1185 -222 1730 -365 885 -1099 1583 -1992 1894 -96 33 -329 101 -381 110 -14
2 -47 9 -75 16 -51 12 -269 43 -385 56 -60 6 -437 14 -442 9z m487 -129 c17
-2 54 -8 84 -11 61 -8 75 -10 191 -31 47 -8 121 -24 165 -36 44 -11 88 -21 98
-23 33 -7 202 -63 302 -100 119 -44 388 -174 500 -241 535 -321 959 -774 1242
-1329 145 -282 260 -633 309 -942 5 -26 9 -50 9 -53 1 -3 5 -36 9 -75 5 -38
11 -79 13 -90 3 -11 6 -132 8 -270 3 -332 -15 -506 -86 -805 -223 -943 -862
-1741 -1734 -2165 -374 -182 -754 -289 -1145 -323 -166 -14 -659 -5 -689 12
-3 2 -35 7 -70 10 -196 21 -600 133 -794 220 -242 109 -371 178 -537 289 -91
61 -242 171 -276 202 -6 6 -44 39 -85 75 -156 137 -336 334 -466 510 -61 83
-99 141 -198 300 -37 61 -131 251 -178 360 -106 251 -193 561 -222 796 -4 27
-8 56 -10 64 -25 97 -26 777 -1 819 2 3 7 33 11 66 24 215 119 551 227 805
352 827 1042 1477 1897 1789 183 67 478 140 627 156 32 4 61 8 64 10 3 2 46 6
95 10 50 4 92 9 94 11 5 4 510 -4 546 -10z"/>
<path d="M2940 4323 c-121 -18 -195 -84 -207 -182 -16 -137 53 -212 265 -287
131 -46 162 -66 162 -103 0 -56 -70 -91 -169 -84 -67 4 -113 29 -125 69 -18
60 -26 75 -51 86 -22 10 -30 8 -53 -9 -68 -51 -23 -191 78 -242 51 -26 82 -32
171 -32 181 0 279 74 279 213 0 124 -66 184 -298 269 -104 38 -132 58 -132 94
0 54 74 89 170 81 80 -7 116 -32 131 -92 25 -99 129 -87 129 14 0 124 -95 200
-255 206 -38 1 -81 1 -95 -1z"/>
<path d="M1339 4302 c-106 -35 -194 -115 -240 -217 -19 -41 -23 -68 -23 -150
0 -90 2 -106 28 -159 73 -150 203 -228 369 -222 66 2 93 8 140 31 32 16 69 39
83 51 68 63 -16 151 -89 94 -85 -67 -219 -66 -309 3 -94 72 -124 205 -71 316
64 133 245 183 364 100 43 -30 78 -31 105 -4 47 47 24 86 -84 137 -82 39 -190
47 -273 20z"/>
<path d="M4514 4291 c-106 -35 -174 -95 -227 -201 -30 -60 -32 -72 -32 -165 0
-90 3 -106 28 -155 76 -147 212 -228 367 -217 301 21 458 353 283 601 -90 127
-268 185 -419 137z m239 -143 c84 -47 134 -146 124 -246 -10 -91 -64 -164
-151 -202 -163 -73 -348 48 -349 229 -1 129 89 228 228 253 33 6 105 -11 148
-34z"/>
<path d="M1955 4275 l-25 -24 0 -268 c0 -239 2 -272 19 -308 37 -81 115 -123
238 -129 150 -7 253 38 294 128 17 37 19 70 19 313 l0 272 -26 20 c-34 27 -50
26 -79 -4 l-25 -24 0 -250 c0 -166 -4 -258 -11 -275 -17 -36 -68 -57 -142 -57
-73 -1 -130 22 -146 58 -7 15 -11 115 -11 278 l0 254 -26 20 c-34 27 -50 26
-79 -4z"/>
<path d="M3483 4274 c-28 -28 -29 -58 -3 -84 22 -22 16 -21 155 -23 l100 -2 0
-270 c1 -148 5 -280 9 -293 14 -42 87 -49 113 -10 4 7 9 135 10 283 1 149 2
275 2 281 1 7 42 11 118 12 108 0 119 2 135 22 25 31 22 65 -6 88 -23 18 -44
19 -317 19 l-292 0 -24 -23z"/>
<path d="M5267 4293 c-39 -10 -43 -45 -41 -353 1 -162 2 -304 3 -316 3 -50 63
-77 102 -45 24 19 24 22 26 218 0 109 2 200 2 203 1 3 38 -51 84 -120 l82
-125 40 0 40 0 80 122 c44 67 83 124 85 127 3 2 5 -88 5 -201 1 -204 1 -205
25 -223 28 -21 68 -17 90 9 13 15 15 66 15 343 0 249 -3 329 -13 341 -18 21
-58 30 -81 17 -11 -5 -70 -88 -132 -185 l-113 -174 -118 179 c-64 99 -121 180
-127 180 -5 0 -15 2 -23 4 -7 2 -21 2 -31 -1z"/>
<path d="M1805 3151 c-79 -20 -156 -92 -176 -165 -13 -50 -4 -127 21 -176 83
-163 332 -160 417 4 24 46 29 139 9 189 -41 108 -163 174 -271 148z m135 -99
c126 -93 69 -285 -84 -285 -147 0 -211 188 -95 276 19 14 43 27 54 30 34 9 99
-2 125 -21z"/>
<path d="M4130 3143 c-99 -34 -160 -119 -160 -222 1 -267 371 -323 456 -69 59
177 -118 352 -296 291z m148 -87 c42 -22 72 -67 77 -117 15 -153 -169 -234
-269 -117 -113 131 38 314 192 234z"/>
<path d="M5627 3144 c-65 -20 -131 -86 -150 -151 -47 -158 60 -304 223 -305
170 -2 283 179 210 335 -49 104 -169 155 -283 121z m145 -85 c122 -65 100
-251 -34 -287 -91 -25 -175 32 -193 130 -12 65 41 147 110 170 27 8 89 2 117
-13z"/>
<path d="M1112 3141 c-11 -6 -14 -54 -14 -217 0 -188 2 -209 18 -221 21 -15
24 -16 44 -3 10 6 17 33 20 87 l5 77 60 2 c33 1 68 2 78 3 9 0 34 16 53 34 30
28 37 42 41 83 12 117 -46 164 -202 164 -49 0 -96 -4 -103 -9z m214 -96 c39
-54 1 -98 -86 -100 l-60 -1 0 63 0 63 66 -3 c51 -2 70 -8 80 -22z"/>
<path d="M2330 3135 c-10 -12 -13 -68 -12 -217 0 -181 2 -203 18 -215 40 -29
56 -8 62 79 2 40 6 75 8 77 3 3 44 -34 92 -82 48 -48 93 -87 99 -87 15 0 43
28 43 44 0 7 -28 40 -62 74 -51 51 -58 62 -41 62 12 0 37 15 56 33 59 55 62
151 7 204 -39 36 -57 41 -166 42 -71 1 -94 -2 -104 -14z m203 -77 c9 -7 19
-27 23 -44 9 -45 -25 -69 -97 -69 l-54 0 -5 35 c-3 19 -4 47 -1 63 3 26 6 27
60 27 32 0 65 -6 74 -12z"/>
<path d="M2842 3138 c-16 -16 -15 -57 1 -64 7 -2 45 -6 83 -7 l69 -2 1 -174
c0 -153 2 -175 18 -186 19 -14 52 -9 59 8 2 7 4 84 5 172 1 88 1 166 1 173 1
9 21 12 71 11 78 -2 104 11 94 45 -4 12 -12 24 -18 28 -20 13 -371 9 -384 -4z"/>
<path d="M3468 3133 c-12 -15 -15 -53 -14 -215 1 -170 4 -200 18 -214 15 -16
19 -16 40 -2 22 15 24 22 23 97 l0 81 70 0 c74 0 88 5 98 32 13 35 -15 50 -91
49 -50 0 -72 3 -73 12 -5 42 -5 74 -1 84 3 9 38 12 123 12 129 -1 155 7 143
45 -4 12 -12 24 -18 28 -6 4 -77 8 -157 8 -127 0 -148 -2 -161 -17z"/>
<path d="M4680 3140 c-21 -13 -26 -394 -5 -426 12 -19 22 -21 135 -20 121 1
140 6 140 41 0 31 -20 38 -109 39 -50 1 -92 3 -92 6 -1 3 -2 83 -3 178 -1 140
-4 175 -16 182 -19 12 -31 12 -50 0z"/>
<path d="M5168 3137 c-10 -11 -13 -60 -13 -216 0 -188 2 -204 20 -217 24 -18
30 -18 48 0 21 22 19 422 -3 436 -21 13 -36 12 -52 -3z"/>
</g>
</svg>
