<svg xmlns="http://www.w3.org/2000/svg" width="56.41" height="55" viewBox="0 0 56.41 55"><defs><style>.a{fill:#171515;}</style></defs><path class="a" d="M18.868,52.286c0,.227-.262.409-.591.409-.375.034-.637-.148-.637-.409,0-.227.262-.409.591-.409C18.572,51.842,18.868,52.024,18.868,52.286Zm-3.537-.512c-.08.227.148.489.489.557a.533.533,0,0,0,.705-.227c.068-.227-.148-.489-.489-.591a.584.584,0,0,0-.705.262Zm5.027-.193c-.33.08-.557.3-.523.557.034.227.33.375.671.3s.557-.3.523-.523S20.687,51.547,20.357,51.581ZM27.841,8C12.067,8,0,19.976,0,35.75a28.513,28.513,0,0,0,19.277,27.2c1.456.262,1.968-.637,1.968-1.376,0-.705-.034-4.595-.034-6.983,0,0-7.961,1.706-9.633-3.389,0,0-1.3-3.31-3.162-4.162,0,0-2.6-1.786.182-1.751a6,6,0,0,1,4.39,2.934c2.491,4.39,6.664,3.128,8.291,2.377A6.321,6.321,0,0,1,23.1,46.77c-6.357-.705-12.772-1.626-12.772-12.567a8.619,8.619,0,0,1,2.684-6.7,10.745,10.745,0,0,1,.3-7.722c2.377-.739,7.847,3.071,7.847,3.071a26.867,26.867,0,0,1,14.284,0s5.47-3.821,7.847-3.071a10.74,10.74,0,0,1,.3,7.722c1.82,2.013,2.934,3.582,2.934,6.7,0,10.975-6.7,11.851-13.056,12.567,1.046.9,1.933,2.6,1.933,5.277,0,3.833-.034,8.575-.034,9.508,0,.739.523,1.638,1.968,1.376C48.7,59.155,56.409,48.362,56.409,35.75,56.409,19.976,43.615,8,27.841,8ZM11.054,47.225c-.148.114-.114.375.08.591.182.182.444.262.591.114.148-.114.114-.375-.08-.591C11.464,47.157,11.2,47.077,11.054,47.225ZM9.826,46.3c-.08.148.034.33.262.444a.338.338,0,0,0,.489-.08c.08-.148-.034-.33-.262-.444C10.088,46.156,9.906,46.19,9.826,46.3Zm3.685,4.049c-.182.148-.114.489.148.705.262.262.591.3.739.114.148-.148.08-.489-.148-.705C14,50.2,13.659,50.171,13.511,50.353Zm-1.3-1.672c-.182.114-.182.409,0,.671s.489.375.637.262a.519.519,0,0,0,0-.705c-.159-.262-.455-.375-.637-.227Z" transform="translate(0 -8)"/></svg>