<svg xmlns="http://www.w3.org/2000/svg" width="55.01" height="54.999" viewBox="0 0 55.01 54.999"><defs><style>.a{fill:#8a3ab9;}</style></defs><path class="a" d="M27.437,45.224a14.1,14.1,0,1,0,14.1,14.1A14.079,14.079,0,0,0,27.437,45.224Zm0,23.269A9.168,9.168,0,1,1,36.6,59.325a9.184,9.184,0,0,1-9.168,9.168ZM45.4,44.647a3.289,3.289,0,1,1-3.289-3.289A3.281,3.281,0,0,1,45.4,44.647Zm9.339,3.338c-.209-4.406-1.215-8.308-4.443-11.524s-7.118-4.222-11.524-4.443c-4.541-.258-18.151-.258-22.692,0-4.394.209-8.3,1.215-11.524,4.43S.339,43.567.118,47.973c-.258,4.541-.258,18.151,0,22.692.209,4.406,1.215,8.308,4.443,11.524s7.118,4.222,11.524,4.443c4.541.258,18.151.258,22.692,0,4.406-.209,8.308-1.215,11.524-4.443s4.222-7.118,4.443-11.524c.258-4.541.258-18.139,0-22.68ZM48.877,75.537a9.281,9.281,0,0,1-5.228,5.228c-3.62,1.436-12.211,1.1-16.212,1.1s-12.6.319-16.212-1.1A9.281,9.281,0,0,1,6,75.537c-1.436-3.62-1.1-12.211-1.1-16.212S4.573,46.721,6,43.113a9.281,9.281,0,0,1,5.228-5.228c3.62-1.436,12.211-1.1,16.212-1.1s12.6-.319,16.212,1.1a9.281,9.281,0,0,1,5.228,5.228c1.436,3.62,1.1,12.211,1.1,16.212S50.313,71.928,48.877,75.537Z" transform="translate(0.074 -31.825)"/></svg>