<svg xmlns="http://www.w3.org/2000/svg" width="54.992" height="55" viewBox="0 0 54.992 55"><defs><style>.a{fill:#39100d;}</style></defs><path class="a" d="M54.911,41.565l-2.5,10.828a3.339,3.339,0,0,1-3.272,2.6A49.2,49.2,0,0,1,0,5.849,3.337,3.337,0,0,1,2.6,2.578L13.429.081a3.371,3.371,0,0,1,3.843,1.946l5,11.655A3.362,3.362,0,0,1,21.3,17.6l-5.783,4.644A37.559,37.559,0,0,0,32.655,39.374l4.735-5.779a3.342,3.342,0,0,1,3.917-.964l11.655,5A3.663,3.663,0,0,1,54.911,41.565Z" transform="translate(0 0.006)"/></svg>