<svg xmlns="http://www.w3.org/2000/svg" width="67.719" height="55" viewBox="0 0 67.719 55"><defs><style>.a{fill:#00acee;}</style></defs><path class="a" d="M60.758,61.789c.043.6.043,1.2.043,1.8,0,18.348-13.965,39.488-39.488,39.488A39.22,39.22,0,0,1,0,96.852a28.71,28.71,0,0,0,3.352.172,27.8,27.8,0,0,0,17.23-5.93A13.9,13.9,0,0,1,7.605,81.469a17.5,17.5,0,0,0,2.621.215,14.679,14.679,0,0,0,3.652-.473A13.881,13.881,0,0,1,2.75,67.59v-.172A13.977,13.977,0,0,0,9.023,69.18a13.9,13.9,0,0,1-4.3-18.562A39.45,39.45,0,0,0,33.344,65.141,15.667,15.667,0,0,1,33,61.961a13.892,13.892,0,0,1,24.02-9.5,27.325,27.325,0,0,0,8.809-3.352,13.841,13.841,0,0,1-6.1,7.648,27.823,27.823,0,0,0,7.992-2.148,29.834,29.834,0,0,1-6.961,7.176Z" transform="translate(0 -48.082)"/></svg>